<?xml version="1.0" standalone="no"?>
<!DOCTYPE svg PUBLIC "-//W3C//DTD SVG 1.1//EN" "http://www.w3.org/Graphics/SVG/1.1/DTD/svg11.dtd" >
<!--
2013-9-30: Created.
-->
<svg>
<metadata>
Created by iconfont
</metadata>
<defs>

<font id="iconfont" horiz-adv-x="1024" >
  <font-face
    font-family="iconfont"
    font-weight="500"
    font-stretch="normal"
    units-per-em="1024"
    ascent="896"
    descent="-128"
  />
    <missing-glyph />
    
    <glyph glyph-name="x" unicode="x" horiz-adv-x="1001"
d="M281 543q-27 -1 -53 -1h-83q-18 0 -36.5 -6t-32.5 -18.5t-23 -32t-9 -45.5v-76h912v41q0 16 -0.5 30t-0.5 18q0 13 -5 29t-17 29.5t-31.5 22.5t-49.5 9h-133v-97h-438v97zM955 310v-52q0 -23 0.5 -52t0.5 -58t-10.5 -47.5t-26 -30t-33 -16t-31.5 -4.5q-14 -1 -29.5 -0.5
t-29.5 0.5h-32l-45 128h-439l-44 -128h-29h-34q-20 0 -45 1q-25 0 -41 9.5t-25.5 23t-13.5 29.5t-4 30v167h911zM163 247q-12 0 -21 -8.5t-9 -21.5t9 -21.5t21 -8.5q13 0 22 8.5t9 21.5t-9 21.5t-22 8.5zM316 123q-8 -26 -14 -48q-5 -19 -10.5 -37t-7.5 -25t-3 -15t1 -14.5
t9.5 -10.5t21.5 -4h37h67h81h80h64h36q23 0 34 12t2 38q-5 13 -9.5 30.5t-9.5 34.5q-5 19 -11 39h-368zM336 498v228q0 11 2.5 23t10 21.5t20.5 15.5t34 6h188q31 0 51.5 -14.5t20.5 -52.5v-227h-327z" />
    

    
    <glyph glyph-name="xiaosuolvetu" unicode="&#58881;" d="M248.832 832.512q28.672 0 48.64-19.968t19.968-48.64l0-116.736q0-28.672-19.968-48.64t-48.64-19.968l-116.736 0q-28.672 0-48.64 19.968t-19.968 48.64l0 116.736q0 28.672 19.968 48.64t48.64 19.968l116.736 0zM572.416 832.512q28.672 0 48.64-19.968t19.968-48.64l0-116.736q0-28.672-19.968-48.64t-48.64-19.968l-118.784 0q-28.672 0-48.64 19.968t-19.968 48.64l0 116.736q0 28.672 19.968 48.64t48.64 19.968l118.784 0zM891.904 832.512q28.672 0 48.64-19.968t19.968-48.64l0-116.736q0-28.672-19.968-48.64t-48.64-19.968l-118.784 0q-28.672 0-48.64 19.968t-19.968 48.64l0 116.736q0 28.672 19.968 48.64t48.64 19.968l118.784 0zM248.832 510.976q28.672 0 48.64-19.968t19.968-48.64l0-116.736q0-28.672-19.968-48.64t-48.64-19.968l-116.736 0q-28.672 0-48.64 19.968t-19.968 48.64l0 116.736q0 28.672 19.968 48.64t48.64 19.968l116.736 0zM572.416 510.976q28.672 0 48.64-19.968t19.968-48.64l0-116.736q0-28.672-19.968-48.64t-48.64-19.968l-118.784 0q-28.672 0-48.64 19.968t-19.968 48.64l0 116.736q0 28.672 19.968 48.64t48.64 19.968l118.784 0zM891.904 510.976q28.672 0 48.64-19.968t19.968-48.64l0-116.736q0-28.672-19.968-48.64t-48.64-19.968l-118.784 0q-28.672 0-48.64 19.968t-19.968 48.64l0 116.736q0 28.672 19.968 48.64t48.64 19.968l118.784 0zM248.832 189.44q28.672 0 48.64-19.968t19.968-48.64l0-116.736q0-28.672-19.968-48.64t-48.64-19.968l-116.736 0q-28.672 0-48.64 19.968t-19.968 48.64l0 116.736q0 28.672 19.968 48.64t48.64 19.968l116.736 0zM572.416 189.44q28.672 0 48.64-19.968t19.968-48.64l0-116.736q0-28.672-19.968-48.64t-48.64-19.968l-118.784 0q-28.672 0-48.64 19.968t-19.968 48.64l0 116.736q0 28.672 19.968 48.64t48.64 19.968l118.784 0zM891.904 189.44q28.672 0 48.64-19.968t19.968-48.64l0-116.736q0-28.672-19.968-48.64t-48.64-19.968l-118.784 0q-28.672 0-48.64 19.968t-19.968 48.64l0 116.736q0 28.672 19.968 48.64t48.64 19.968l118.784 0z"  horiz-adv-x="1024" />

    
    <glyph glyph-name="check" unicode="&#58885;" d="M511.837 192c-184.451 0-288.003 191.997-288.003 191.997S329.357 576 511.837 576c182.474 0 287.997-192.003 287.997-192.003S696.285 192 511.837 192zM511.833 512c-131.99 0-208.32-128.003-208.32-128.003S378.416 256 511.833 256s208.32 127.997 208.32 127.997S643.824 512 511.833 512zM511.833 320c-35.347 0-64 28.656-64 64.003 0 35.344 28.653 64 64 64s64-28.656 64-64C575.833 348.65599999999995 547.181 320 511.833 320z"  horiz-adv-x="1024" />

    
    <glyph glyph-name="shouji" unicode="&#58908;" d="M826.090023 34.053839c0-53.442166-43.324738-96.764857-96.764857-96.764857L294.670741-62.711018c-53.439096 0-96.761788 43.322691-96.761788 96.764857L197.908954 733.947184c0 53.439096 43.322691 96.762811 96.761788 96.762811l434.655448 0c53.44012 0 96.764857-43.323715 96.764857-96.762811L826.091046 34.053839 826.090023 34.053839zM770.25025 733.947184c0 22.602787-18.321274 40.925085-40.924061 40.925085L294.670741 774.872269c-22.601764 0-40.924061-18.322297-40.924061-40.925085l0-699.893344c0-22.602787 18.322297-40.924061 40.924061-40.924061l434.655448 0c22.602787 0 40.924061 18.321274 40.924061 40.924061L770.25025 733.947184 770.25025 733.947184zM797.529547 118.76722 225.18825 118.76722c-7.716752 0-13.959943 6.244214-13.959943 13.95892 0 7.716752 6.244214 13.960966 13.959943 13.960966l572.341297 0c7.701402 0 13.960966-6.244214 13.960966-13.960966C811.48949 125.010411 805.231973 118.76722 797.529547 118.76722zM797.529547 677.154713 225.18825 677.154713c-7.716752 0-13.959943 6.243191-13.959943 13.95892 0 7.716752 6.244214 13.960966 13.959943 13.960966l572.341297 0c7.701402 0 13.960966-6.244214 13.960966-13.960966C811.48949 683.397904 805.231973 677.154713 797.529547 677.154713zM546.898323 59.43695c0-13.495362-10.946306-24.429389-24.429389-24.429389l-6.978948 0c-13.483082 0-24.430412 10.93505-24.430412 24.429389l0 6.980995c0 13.495362 10.94733 24.429389 24.430412 24.429389l6.978948 0c13.483082 0 24.429389-10.937097 24.429389-24.429389L546.898323 59.43695zM575.090409 429.127803c-1.526773 0-3.094478 0.24457-4.623297 0.789992-7.277754 2.549056-11.096732 10.523681-8.547677 17.803481l3.790326 10.782577c2.562359 7.266497 10.497075 11.137665 17.801435 8.534374 7.267521-2.549056 11.098779-10.523681 8.534374-17.803481l-3.78828-10.782577C586.240353 432.713468 580.855716 429.127803 575.090409 429.127803zM521.869277 277.556713c-1.526773 0-3.094478 0.2415-4.623297 0.787946-7.2798 2.537799-11.096732 10.524704-8.547677 17.775852l39.588647 112.7489c2.549056 7.278777 10.510378 11.150968 17.804505 8.547677 7.265474-2.549056 11.096732-10.524704 8.53335-17.790178l-39.588647-112.747877C533.020244 281.124981 527.635607 277.556713 521.869277 277.556713zM465.29477 382.825244c-1.526773 0-3.095501 0.24457-4.623297 0.789992-7.278777 2.535753-11.096732 10.523681-8.547677 17.781992l57.882292 164.883281c2.536776 7.293103 10.510378 11.137665 17.791202 8.547677 7.277754-2.549056 11.097756-10.524704 8.5487-17.790178l-57.882292-164.890444C476.459041 386.396583 471.061101 382.825244 465.29477 382.825244zM438.111664 305.476599c-1.526773 0-3.093455 0.2415-4.621251 0.787946-7.2798 2.537799-11.096732 10.522658-8.5487 17.803481l8.520047 24.211425c2.549056 7.278777 10.497075 11.122315 17.790178 8.534374 7.278777-2.536776 11.097756-10.524704 8.5487-17.803481l-8.520047-24.211425C449.262632 309.043844 443.880041 305.476599 438.111664 305.476599z"  horiz-adv-x="1024" />

    
    <glyph glyph-name="daiban" unicode="&#58942;" d="M246.52 450.32h533.109v51.895h-533.109v-51.895zM246.52 308.736h399.206v51.895h-399.206v-51.895zM830.144 817.129h-634.664c-69.683 0-126.375-56.691-126.375-126.374v-428.206c0-69.683 56.691-126.374 126.375-126.374h4.322l-1.336-185.016 267.805 185.016h363.872c69.684 0 126.375 56.691 126.375 126.374l-0 428.206c0 69.683-56.691 126.374-126.375 126.374zM904.624 262.549c0-41.067-33.411-74.477-74.479-74.477l-380.061-0-199.006-137.483 1.001 137.484h-56.597c-41.068 0-74.48 33.41-74.48 74.477l0 428.205c0 41.067 33.412 74.479 74.48 74.479h634.664c41.068 0 74.479-33.411 74.479-74.479v-428.206zM246.52 591.905h533.109v51.895l-533.109 0v-51.895z"  horiz-adv-x="1024" />

    
    <glyph glyph-name="fenleisheyingshuma" unicode="&#58982;" d="M289.902646 323.061093c0-106.552781 86.651522-193.204303 193.204303-193.204303s193.204303 86.652546 193.204303 193.204303S589.659731 516.265396 483.106949 516.265396 289.902646 429.61285 289.902646 323.061093zM483.106949 451.86362c71.034846 0 128.802528-57.767682 128.802528-128.802528S554.141796 194.258565 483.106949 194.258565s-128.802528 57.767682-128.802528 128.802528S412.073126 451.86362 483.106949 451.86362zM814.596759 532.365072m-48.301076 0a47.201 47.201 0 1 0 96.602152 0 47.201 47.201 0 1 0-96.602152 0ZM322.104045 734.745363l128.802528 0c17.806551 0 32.201399 14.392802 32.201399 32.201399s-14.392802 32.201399-32.201399 32.201399L322.104045 799.148162c-17.806551 0-32.201399-14.392802-32.201399-32.201399S304.295448 734.745363 322.104045 734.745363zM862.897835 672.151769 515.308349 672.151769c-17.773805 0-32.201399-14.426571-32.201399-32.201399s14.426571-32.201399 32.201399-32.201399l347.589486 0c17.774829 0 32.201399-14.459317 32.201399-32.201399l-0.352017-511.575328c0-16.847713-13.706163-30.55183-30.55183-30.55183L324.770781 33.420413l0-0.167822L161.100118 33.252591c-17.742083 0-32.201399 14.426571-32.201399 32.201399L128.898719 575.552687c0 17.742083 14.459317 32.201399 32.201399 32.201399l96.603175 0c17.773805 0 32.201399 14.426571 32.201399 32.201399s-14.426571 32.201399-32.201399 32.201399l-96.603175 0c-53.260018 0-96.603175-43.343157-96.603175-96.603175l0-510.09665c0-53.260018 43.343157-96.603175 96.603175-96.603175l703.096293 0.167822c52.356438 0 94.953605 42.597167 94.953605 94.953605l0.352017 511.576351C959.50101 628.809635 916.157853 672.151769 862.897835 672.151769z"  horiz-adv-x="1024" />

    
    <glyph glyph-name="moban" unicode="&#59039;" d="M891.158 318.483c-41.79 42.488-97.623 66.157-157.216 66.648-0.629 0.005-1.253 0.007-1.882 0.007-42.562 0-83.35-11.87-118.548-34.038-5.796 2.164-11.63 4.191-17.501 6.078 19.913 11.193 38.417 25.178 55.011 41.772 47.607 47.607 73.826 110.907 73.826 178.237s-26.218 130.63-73.826 178.237-110.906 73.827-178.236 73.827c-67.33 0-130.63-26.219-178.237-73.826s-73.826-110.907-73.826-178.237 26.219-130.629 73.826-178.237c16.598-16.598 35.109-30.588 55.027-41.782-11.367-3.652-22.598-7.82-33.675-12.505-47.996-20.3-91.096-49.356-128.101-86.363s-66.063-80.104-86.363-128.102c-21.023-49.704-31.683-102.487-31.683-156.885h51.224c0 0.789 0.025 1.571 0.030 2.359h488.304c35.594-23.555 77.251-36.388 120.938-36.75 0.63-0.006 1.243-0.008 1.872-0.008 59.204 0 114.977 22.964 157.045 64.663 42.091 41.722 65.543 97.339 66.034 156.605 0.49 59.594-22.254 115.812-64.044 158.299zM271.945 577.188c0 110.744 90.097 200.841 200.841 200.841 110.743 0 200.84-90.097 200.84-200.841 0-110.743-90.097-200.839-200.84-200.839-110.744 0-200.841 90.097-200.841 200.839zM125.052 26.899c25.881 168.65 171.959 298.227 347.735 298.227 32.325 0 63.915-4.286 94.433-12.783-37.174-40.686-57.765-92.979-58.222-148.473-0.412-50.093 15.598-97.798 45.533-136.972h-429.479zM732.122-9.859c-0.488 0-0.961 0.002-1.448 0.006-94.77 0.788-171.237 78.53-170.456 173.301 0.427 51.598 23.851 97.909 60.44 129.191 0.020-0.010 0.040-0.019 0.060-0.028l0.059 0.128c28.295 24.149 64.445 39.32 103.915 41.007-9.826-3.516-16.894-12.866-16.985-23.909l-1.217-147.599c-0.056-6.792 2.588-13.328 7.351-18.171l80.479-81.825c5.013-5.096 11.635-7.652 18.261-7.652 6.484 0 12.971 2.447 17.959 7.352 10.084 9.918 10.219 26.134 0.3 36.22l-73.041 74.261 1.13 136.991c0.091 11.054-6.835 20.53-16.615 24.198 90.665-5.342 162.425-81.179 161.668-173.004-0.783-93.997-77.878-170.47-171.86-170.47z"  horiz-adv-x="1024" />

    
    <glyph glyph-name="icon-audit" unicode="&#58886;" d="M705.189 155.526c-90.249 99.061-35.374 167.285 22.023 257.288l29.314 43.586c22.73 41.172 35.494 88.571 35.064 138.94-1.292 152.012-129.22 280.263-283.478 284.138-2.552 0.062-5.075 0.077-7.628 0.077-160.778 0-291.136-128.373-291.136-286.676 0-65.872 22.7-126.373 60.565-174.774 0.954-1.215 1.876-2.491 2.737-3.799 60.165-91.772 149.92-160.289 12.55-274.713-5.414-4.506-14.426-13.242-20.978-15.565l-168.752 0c-53.859 0-94.86-41.431-94.86-94.491v-61.091c0-53.073 41.002-96.398 94.86-96.398h817.759c54.814 0 92.926 41.37 94.893 96.398v61.091c0 53.059-41.063 94.491-94.893 94.491h-176.543c-10.274 2.8-28.545 28.238-31.498 31.498zM354.102 411.538c-9.043 12.349-18.424 25.129-26.667 37.694-1.815 2.769-3.754 5.46-5.814 8.106-30.759 39.31-47.001 86.187-47.001 135.54 0 122.607 101.32 222.374 225.864 222.39l5.968-0.061c118.177-2.984 218.884-103.919 219.867-220.406 0.309-36.834-8.645-73.19-25.901-105.396l-28.482-42.4-7.688-12.058c-52.108-81.174-123.376-186.988-22.056-310.918l-283.477-0c105.627 118.669 41.248 224.88-4.614 287.51zM913.23 61.334c17.686 0 31.499-14.387 31.499-31.797v-62.996c0-17.441-13.813-30.997-31.499-30.997l-817.759 0c-17.717 0-31.496 13.556-31.496 30.997v62.996c0 17.41 13.779 31.797 31.496 31.797l817.759-0z"  horiz-adv-x="1024" />

    
    <glyph glyph-name="bangzhu" unicode="&#58966;" d="M426.462347 474.38352l0.286526 0c0 30.725792 6.223748 54.455239 18.651802 71.215972 13.801331 20.016893 36.366256 30.019711 67.674309 30.019711 25.313525 0 44.880163-6.976902 58.683541-20.941961 13.343913-14.432711 20.025079-33.513278 20.025079-57.250912 0-17.219173-6.452969-34.21015-19.338441-50.961672l-11.740392-13.267165c-43.277666-39.096437-69.27783-67.951625-78.020958-86.582961-9.201569-17.219173-13.802354-39.327704-13.802354-66.319451l0-11.874445 73.878614 0 0 11.874445c0 17.21815 3.665483 32.586163 11.034311 46.083571 6.452969 13.495362 16.111956 25.600051 29.015847 36.308951 32.682353 28.854165 52.001351 46.99943 57.995879 54.454216 17.48728 22.803355 26.230408 51.189869 26.230408 85.169775 0 42.351574-13.821797 75.634608-41.425482 99.832729-27.145244 24.672936-63.073524 37.005822-107.706047 37.005822-51.103912 0-91.155093-14.891152-120.134101-44.680619-28.062126-28.357861-42.531676-66.729797-43.448558-115.112738-0.037862-0.620124-0.057305-1.25048-0.057305-1.880837 0-0.285502 0-0.573051 0.019443-0.849344-0.019443-0.744967-0.019443-1.488911-0.019443-2.243087l0.13303 0c1.547239-18.745946 17.086144-33.474392 36.042891-33.474392C409.377226 440.909128 424.916131 455.637574 426.462347 474.38352zM510.650771 834.633351c-248.305249 0-449.610044-201.295586-449.610044-449.610044 0-248.324692 201.304795-449.610044 449.610044-449.610044 248.323669 0 449.610044 201.285353 449.610044 449.610044C960.260815 633.337765 758.973416 834.633351 510.650771 834.633351zM510.650771-5.943107c-215.928864 0-390.966413 175.037549-390.966413 390.966413s175.037549 390.965389 390.966413 390.965389c215.927841 0 390.965389-175.036525 390.965389-390.965389S726.577588-5.943107 510.650771-5.943107zM542.072411 216.762091c9.660011-8.838296 14.490016-20.694321 14.490016-35.601846 0-13.956873-5.059226-26.058492-15.176654-36.291554-10.136871-9.31618-22.107507-13.974269-35.908838-13.974269-14.279215 0-26.230408 4.888334-35.908838 14.661931s-14.488992 21.647019-14.488992 35.603893c0 14.907525 4.810562 26.76355 14.488992 35.601846 9.221012 9.31618 21.170159 13.974269 35.908838 13.974269C520.653589 230.736361 532.870842 226.078271 542.072411 216.762091z"  horiz-adv-x="1024" />

    
    <glyph glyph-name="zhanneisousuo" unicode="&#58932;" d="M526.609047 622.933697 175.514049 622.933697C156.126341 622.933697 140.425029 638.22541 140.425029 657.066985 140.425029 675.90856 156.126341 691.200273 175.514049 691.200273L526.609047 691.200273C545.996755 691.200273 561.698067 675.90856 561.698067 657.066985 561.698067 638.22541 545.996755 622.933697 526.609047 622.933697L526.609047 622.933697ZM245.760355 281.600819 175.514049 281.600819C156.126341 281.600819 140.425029 266.309106 140.425029 247.467531 140.425029 228.625956 156.126341 213.334244 175.514049 213.334244L245.760355 213.334244C265.148062 213.334244 280.849375 228.625956 280.849375 247.467531 280.849375 266.309106 265.148062 281.600819 245.760355 281.600819L245.760355 281.600819ZM388.369232-25.598771C388.369232-44.440346 372.667919-59.732059 353.280212-59.732059L351.368748-59.732059 283.033905-59.732059 30.788908-59.732059C13.858798-59.732059 0.000683-46.283544 0.000683-29.831299L0.000683 866.09924C0.000683 882.551485 13.858798 896 34.202237 896L703.829078 896 912.793066 691.200273 912.793066 644.232869 912.793066 600.473994 912.793066 586.615879C912.793066 567.774304 897.091753 552.482591 877.704046 552.482591 858.316338 552.482591 842.615026 567.774304 842.615026 586.684146L842.615026 600.542261 842.615026 622.933697 633.651038 622.933697 633.651038 827.733424 70.246989 827.733424 70.246989 8.534517 283.033905 8.534517 351.368748 8.534517 353.280212 8.534517C372.736186 8.534517 388.369232-6.757196 388.369232-25.598771L388.369232-25.598771ZM702.122413 691.200273 842.615026 691.200273 702.122413 827.733424 702.122413 691.200273 702.122413 691.200273ZM245.760355 418.13397 175.514049 418.13397C156.126341 418.13397 140.425029 402.842258 140.425029 384.000683 140.425029 365.159108 156.126341 349.867395 175.514049 349.867395L245.760355 349.867395C265.148062 349.867395 280.849375 365.159108 280.849375 384.000683 280.849375 402.842258 265.148062 418.13397 245.760355 418.13397L245.760355 418.13397ZM333.551171 520.533834C333.551171 539.375409 317.781592 554.667122 298.393885 554.667122L175.514049 554.667122C156.126341 554.667122 140.425029 539.375409 140.425029 520.533834 140.425029 501.692259 156.126341 486.400546 175.514049 486.400546L298.393885 486.400546C317.781592 486.400546 333.551171 501.692259 333.551171 520.533834L333.551171 520.533834ZM1009.59507-118.031715C992.323626-132.709028 965.972728-131.002364 950.817548-114.072253L798.173485 56.11632C752.503146 26.352093 697.616819 9.012383 638.634498 9.012383 479.846443 9.012383 351.095681 134.213282 351.095681 288.56401 351.095681 442.914737 479.846443 568.115637 638.634498 568.115637 797.354286 568.115637 926.173314 442.914737 926.173314 288.56401 926.173314 220.9801 900.436815 159.744982 859.27207 111.412246L1013.759331-60.756058C1028.777978-77.686168 1027.13958-103.286134 1009.59507-118.031715L1009.59507-118.031715ZM638.634498 85.266148C753.936744 85.266148 847.735019 176.470293 847.735019 288.56401 847.735019 400.657727 753.936744 491.861872 638.634498 491.861872 523.263985 491.861872 429.533977 400.657727 429.533977 288.56401 429.533977 176.470293 523.263985 85.266148 638.634498 85.266148L638.634498 85.266148Z"  horiz-adv-x="1024" />

    
    <glyph glyph-name="shenfenzhengming" unicode="&#58902;" d="M686.320211 707.228659 928.695401 707.228659c12.756535 0 25.51307-8.504698 25.51307-21.261233l0-4.251837L954.208471 94.911906c0-17.008372-12.756535-25.51307-25.51307-25.51307l0 0L686.320211 69.398836l0 46.774303 216.862119 0L903.18233 660.454356 686.320211 660.454356 686.320211 707.228659 686.320211 707.228659zM686.320211 235.234815l144.574746 0 0 0c12.756535 0 21.261233 8.504698 21.261233 17.008372L852.15619 545.64554l0 0c0 8.504698-8.504698 21.261233-21.261233 21.261233L686.320211 566.906773l0-42.522466 123.313513 0 0-250.879887L686.320211 273.50442 686.320211 235.234815zM329.135182 707.228659l357.185029 0 0-46.774303-357.185029 0L329.135182 707.228659 329.135182 707.228659zM686.320211 69.398836l-357.185029 0 0 46.774303 357.185029 0L686.320211 69.398836 686.320211 69.398836zM686.320211 566.90575l0-42.522466L563.006697 524.383284l0-250.879887 123.313513 0 0-38.269605L541.745465 235.233791c-12.756535 0-21.261233 8.504698-21.261233 17.008372L520.484232 545.64554c0 8.504698 8.504698 21.261233 21.261233 21.261233L686.320211 566.906773 686.320211 566.90575zM329.135182 235.234815l0 38.269605 97.800443 0 0 25.51307 0 0 0 0c0 4.251837-4.251837 12.756535-12.756535 21.261233-8.504698 4.251837-25.51307 8.504698-38.269605 8.504698l0 0 0 0-46.774303 0 0 51.02614 0 0 0 0c21.261233 0 38.269605 8.504698 55.279001 21.261233 12.756535 12.756535 21.261233 34.017768 21.261233 55.279001l0 0 0 0 0 0 0 0c0 21.261233-8.504698 42.522466-21.261233 55.279001-17.008372 17.008372-34.017768 25.51307-55.279001 25.51307l0 0 0 0 0 38.269605 0 0 0 0c34.017768 0 63.782675-12.756535 85.043908-34.017768 21.261233-21.261233 34.017768-51.02614 34.017768-85.043908l0 0 0 0 0 0 0 0c0-34.017768-12.756535-63.782675-34.017768-85.043908-4.251837 0-4.251837-4.251837-8.504698-4.251837 12.756535-4.251837 25.51307-8.504698 34.017768-17.008372 17.008372-12.756535 29.764907-29.765931 29.764907-51.02614l0 0 0 0 0-46.774303 0-17.008372-21.261233 0L329.135182 235.236861zM91.012853 707.228659l238.123352 0 0-46.774303L116.525923 660.454356l0-544.281217 212.610282 0 0-46.774303-238.123352 0c-12.756535 0-25.51307 8.504698-25.51307 25.51307L65.499783 685.967426C65.499783 698.723961 78.256318 707.228659 91.012853 707.228659L91.012853 707.228659zM329.135182 575.410448 329.135182 575.410448 329.135182 575.410448 329.135182 575.410448c-34.017768 0-63.782675-12.756535-85.043908-34.017768-21.261233-21.261233-38.269605-51.02614-38.269605-85.043908l0 0 0 0 0 0 0 0c0-34.017768 17.008372-63.782675 38.269605-85.043908 0 0 0-4.251837 4.251837-4.251837-12.756535-4.251837-21.261233-8.504698-29.764907-17.008372l0 0c-21.261233-12.756535-29.764907-29.765931-29.764907-51.02614l0 0 0 0 0-46.774303 0-17.008372 21.261233 0 119.061676 0 0 38.269605-97.800443 0 0 25.51307 0 0 0 0c0 4.251837 4.251837 12.756535 12.756535 21.261233l0 0c8.504698 4.251837 21.261233 8.504698 34.017768 8.504698l0 0 0 0 51.02614 0 0 51.02614 0 0 0 0 0 0c-21.261233 0-42.522466 8.504698-55.279001 21.261233-17.008372 12.756535-25.51307 34.017768-25.51307 55.279001l0 0 0 0 0 0 0 0c0 21.261233 8.504698 42.522466 25.51307 55.279001 12.756535 17.008372 34.017768 25.51307 55.279001 25.51307l0 0 0 0 0 0L329.136206 575.410448z"  horiz-adv-x="1024" />

    
    <glyph glyph-name="shezhi" unicode="&#58923;" d="M833.75-15.25l136.25 170L900 266l11.25 51.25 110 67.5-48.75 213.75-128.75 15-32.5 41.25L825 784.75 627.5 881l-91.25-91.25-52.5 0-91.25 92.5L195 788.5l15-128.75-32.5-41.25L48.75 604.75 1.25 391l110-70L122.5 271l-68.75-108.75 136.25-172.5 122.5 42.5 47.5-23.75 42.5-122.5L622.5-116.5l42.5 122.5 47.5 22.5L833.75-15.25zM566.25-37.75l-107.5 1.25-35 101.25-106.25 51.25-100-35L150 166l56.25 90L180 371l-90 57.5L112.5 532.25l106.25 11.25 72.5 91.25-12.5 106.25 96.25 46.25 75-76.25 117.5-1.25 75 75 96.25-47.5-11.25-106.25 73.75-92.5 106.25-12.5 23.75-105-90-56.25-26.25-115 57.5-90-66.25-83.75-100 36.25-106.25-50L566.25-37.75zM662.5 504.75c-67.5 85-191.25 100-275 32.5-83.75-67.5-97.5-190-30-275s191.25-100 275-32.5C717.5 296 730 419.75 662.5 504.75zM415 307.25c-42.5 53.75-33.75 131.25 18.75 172.5 52.5 41.25 130 32.5 172.5-20 42.5-53.75 33.75-131.25-18.75-172.5C533.75 244.75 456.25 253.5 415 307.25z"  horiz-adv-x="1024" />

    
    <glyph glyph-name="edit" unicode="&#58909;" d="M934.443 637.281L496.176 199.01700000000005l-157.92 0L338.256 356.94100000000003 776.523 795.2c6.165 6.165 14.235 9.175 22.315 9.175 8.1 0 16.185-3.01 22.35-9.175l113.255-113.247c6.17-6.17 9.175-14.24 9.175-22.335C943.618 651.546 940.613 643.448 934.443 637.281zM798.858 712.258L417.216 330.62199999999996l0-52.65 52.64 0 381.642 381.647L798.858 712.258zM509.339 672.773L180.337 672.773l0-631.676 631.681 0L812.018 370.101c0 21.79 17.665 39.475 39.48 39.475 21.805 0 39.48-17.685 39.48-39.475l0-355.324c0-29.075-23.57-52.645-52.64-52.645L154.017-37.86800000000005c-29.07 0-52.64 23.57-52.64 52.645L101.377 699.098c0 29.07 23.57 52.64 52.64 52.64l355.322 0c21.805 0 39.48-17.685 39.48-39.48S531.144 672.773 509.339 672.773z"  horiz-adv-x="1024" />

    
    <glyph glyph-name="arrow-right" unicode="&#58911;" d="M341.957209-63.354678000000035c-12.893658 0-25.842575 4.425799-36.386722 13.467733-23.493064 20.10592-26.224268 55.426357-6.064113 78.891791L603.929736 384.210801l-304.423361 355.206978c-20.160155 23.465434-17.427928 58.786894 6.064113 78.891791 23.437805 20.024056 58.786894 17.373693 78.837556-6.064113l335.675132-391.620305c17.974373-20.952194 17.974373-51.875484 0-72.827679l-335.675132-391.620305C373.371686-56.71751400000005 357.691565-63.354678000000035 341.957209-63.354678000000035z"  horiz-adv-x="1024" />

    
    <glyph glyph-name="search" unicode="&#58906;" d="M978.649-88.802c-9.598-9.598-25.176-9.598-34.798 0l-279.218 279.218c-66.298-55.667-151.692-89.307-245.035-89.307-210.656 0-381.445 170.789-381.445 381.445 0 210.681 170.789 381.445 381.445 381.445 210.656 0 381.445-170.765 381.445-381.445 0-99.594-38.489-189.984-101.021-257.931l278.628-278.628c9.623-9.598 9.623-25.2 0-34.798zM751.825 482.555c0 183.488-148.739 332.227-332.227 332.227s-332.227-148.739-332.227-332.227c0-183.488 148.739-332.227 332.227-332.227 183.488 0 332.227 148.739 332.227 332.227z"  horiz-adv-x="1024" />

    
    <glyph glyph-name="xinfeng" unicode="&#58907;" d="M527.247 691.753c113.891 0 227.885-0.717 341.777 0.307 60.373 0.511 88.923-25.48 88.31-87.491-1.434-139.474 0.408-278.947-0.82-418.42-0.716-78.18-31.926-107.241-111.333-107.343-218.573-0.307-437.044-0.307-655.618 0.204-77.667 0.205-124.84 46.764-125.25 123.613-0.716 125.557-0.511 251.114-0.204 376.568 0.204 81.454 30.289 111.845 114.403 112.664 116.245 1.126 232.49 0.307 348.735 0.307v-0.41zM518.037 133.142c109.287 0 218.676 1.33 327.963-0.614 41.443-0.716 58.225 12.382 57.304 55.667-2.252 104.58-0.307 209.364-1.33 314.045-0.103 17.090 9.414 40.625-12.485 49.834-19.954 8.391-32.642-10.13-47.070-21.693-96.906-77.36-195.653-152.572-291.023-231.774-31.517-26.196-51.573-25.275-82.272 0.102-97.11 80.533-197.084 157.484-295.012 237.095-13.098 10.642-25.378 23.74-41.648 19.136-21.080-6.038-13.2-27.22-13.303-42.057-0.716-99.975 1.33-200.052-0.716-300.027-1.126-56.485 23.536-80.328 78.69-79.816 106.831 0.818 213.867 0.204 320.902 0.102zM139.525 633.323c19.851-18.317 25.991-24.763 32.95-30.29 60.885-48.298 121.259-97.211 182.86-144.384 159.837-122.488 160.246-122.488 316.707 2.148 66.41 52.904 131.492 107.343 211.205 172.628-255.411-0.102-490.562-0.102-743.722-0.102z"  horiz-adv-x="1024" />

    
    <glyph glyph-name="qiehuanzuhu" unicode="&#58965;" d="M950.093 408.228l-179.775 173.078c-14.382 13.851-35.955 13.851-50.336 0-14.382-13.842-14.382-34.614 0-48.465l118.647-114.228h-345.168c-21.573 0-35.955-13.842-35.955-34.614s14.382-34.614 35.955-34.614h345.168l-118.639-114.228c-14.382-13.851-14.382-34.623 0-48.465 7.192-6.93 14.382-10.386 25.164-10.386 10.792 0 17.982 3.465 25.173 10.386l179.775 176.535s0 3.465 3.6 3.465c10.782 10.386 10.782 31.149-3.6 41.535zM853.010 141.693c-21.573 0-35.955-13.851-35.955-34.614v-69.237c0-20.763-14.382-34.614-35.955-34.614h-611.235c-21.573 0-35.955 13.851-35.955 34.614v692.317c0 20.763 14.382 34.614 35.955 34.614h611.235c21.573 0 35.955-13.851 35.955-34.614v-69.237c0-20.764 14.382-34.614 35.955-34.614s35.955 13.851 35.955 34.614v69.237c0 58.842-46.736 103.842-107.865 103.842h-611.235c-61.119 0-107.865-45-107.865-103.842v-692.317c0-58.842 46.747-103.842 107.865-103.842h611.235c61.128 0 107.865 45 107.865 103.842v69.237c0 20.764-14.382 34.614-35.955 34.614z"  horiz-adv-x="1024" />

    
    <glyph glyph-name="shijian" unicode="&#58921;" d="M511.968002 835.628717c249.052543 0 451.644715-202.62417 451.644716-451.660715 0-249.076541-202.592172-451.676713-451.644716-451.676712-249.044543 0-451.660714 202.600172-451.660714 451.676712 0 249.036544 202.616171 451.660714 451.660714 451.660715m0 60.307288C229.190095 895.936005 0 666.75391 0 383.968002c0-282.769909 229.190095-511.984001 511.968002-511.984001 282.737911 0 511.952004 229.214093 511.952004 511.984001C1023.920006 666.75391 794.705914 895.936005 511.968002 895.936005zM643.813702 221.580689a29.997656 29.997656 0 0 0-21.318334 8.775314L490.649668 361.737739a30.133646 30.133646 0 0 0-8.863308 21.350332V665.777986c0 16.662698 13.486946 30.157644 30.157644 30.157644s30.149645-13.486946 30.149645-30.157644v-270.178892l122.990391-122.542427a30.141645 30.141645 0 0 0-21.270338-51.475978z"  horiz-adv-x="1024" />

    
    <glyph glyph-name="xinxi" unicode="&#59099;" d="M1024 192a128 128 0 0 0-128-128h-64v-192l-256 192H128a128 128 0 0 0-128 128V768a128 128 0 0 0 128 128h768a128 128 0 0 0 128-128v-576z m-149.12 617.152H149.12c-50.112 0-60.544-14.528-60.544-60.48v-544.384c0-45.952 10.432-60.48 60.48-60.48H632.96l120.96-120.96v120.96h120.96c50.112 0 60.544 14.528 60.544 60.48V748.672c0 45.952-10.432 60.48-60.48 60.48zM768 293.12H256V384h512v-90.88z m0 256.64H256V640h512v-90.24z"  horiz-adv-x="1024" />

    
    <glyph glyph-name="weibo" unicode="&#59212;" d="M995.328 544.768c-12.288 0-22.528 10.24-22.528 23.552 0 114.688-93.184 206.848-206.848 206.848-12.288 0-22.528 10.24-22.528 23.552 0 12.288 10.24 22.528 22.528 22.528 139.264 0 252.928-113.664 252.928-252.928 0-12.288-10.24-23.552-23.552-23.552z m-160.768 0c-12.288 0-23.552 10.24-23.552 23.552 0 25.6-20.48 46.08-46.08 46.08-12.288 0-22.528 10.24-22.528 22.528s10.24 23.552 22.528 23.552c51.2 0 92.16-40.96 92.16-92.16 1.024-12.288-9.216-23.552-22.528-23.552z m0-312.32c0-135.168-176.128-285.696-430.08-285.696-196.608 0-399.36 100.352-399.36 269.312 0 84.992 50.176 183.296 140.288 276.48 87.04 89.088 185.344 145.408 258.048 145.408 28.672 0 53.248-9.216 69.632-26.624 16.384-17.408 32.768-50.176 21.504-107.52 43.008 16.384 82.944 25.6 117.76 25.6 55.296 0 81.92-22.528 95.232-41.984 18.432-27.648 20.48-63.488 4.096-107.52 76.8-25.6 122.88-79.872 122.88-147.456zM696.32 336.896c-9.216 3.072-23.552 7.168-29.696 20.48-7.168 14.336-1.024 28.672 1.024 32.768 8.192 21.504 15.36 52.224 3.072 70.656-12.288 17.408-37.888 21.504-57.344 21.504-31.744 0-71.68-10.24-114.688-28.672-6.144-2.048-14.336-5.12-22.528-5.12-14.336 0-22.528 7.168-25.6 12.288-4.096 6.144-8.192 16.384-3.072 31.744 11.264 38.912 10.24 70.656-4.096 84.992-8.192 8.192-20.48 12.288-36.864 12.288-58.368 0-148.48-52.224-225.28-131.072C96.256 375.808 51.2 288.768 51.2 216.064c0-109.568 132.096-223.232 354.304-223.232C643.072-7.168 788.48 132.096 788.48 232.448c0 67.584-64.512 95.232-92.16 104.448z"  horiz-adv-x="1024" />

    
    <glyph glyph-name="qiapiansousuo" unicode="&#59058;" d="M1014.272-47.616L898.048 71.68c33.792 39.424 54.272 92.16 54.272 149.504 0.512 124.928-98.304 226.816-219.648 226.816s-220.16-101.888-220.16-226.816 98.304-226.816 220.16-226.816c43.008 0 83.968 13.312 118.272 35.84 0 0 0.512-0.512 0.512-1.536l118.784-122.368c12.288-12.288 32.768-12.288 44.544 0 12.288 13.312 12.288 33.792-0.512 46.08z m-284.16 89.088c-119.296 0-210.432 116.736-165.888 242.688 16.384 46.592 54.272 84.48 100.864 100.864 125.44 44.544 242.688-46.592 242.688-165.888 0.512-97.792-79.36-177.664-177.664-177.664zM476.16-13.824H129.536c-71.68 0-129.536 58.368-129.536 129.536V701.44c0 71.68 58.368 129.536 129.536 129.536h698.88c71.68 0 129.536-58.368 129.536-129.536v-194.048c0-19.456-9.728-36.864-26.624-47.104-16.384-10.24-36.352-10.24-53.248-1.536-63.488 33.792-138.24 41.472-210.432 22.016-91.136-25.088-162.816-96.256-187.904-186.368-23.04-82.944-10.752-166.4 34.816-234.496 9.728-14.848 10.752-33.792 2.56-49.664-8.192-14.848-23.552-24.064-40.96-24.064zM129.536 788.48C81.92 788.48 43.008 749.568 43.008 701.44v-585.728c0-47.616 38.912-86.528 86.528-86.528H476.16c3.584 2.56 4.608 4.608 3.072 7.168-52.224 78.848-66.56 174.592-40.448 269.824 29.184 104.448 112.64 187.392 218.112 216.576 82.944 22.528 168.96 13.824 241.664-25.6 5.12-2.56 9.216-1.024 11.264 0.512 1.536 1.024 5.632 4.096 5.632 10.24V701.44c0 47.616-38.912 86.528-86.528 86.528H129.536zM429.568 589.824H160.256c-18.432 0-33.792 15.36-33.792 33.792 0 18.432 15.36 33.792 33.792 33.792h269.312c18.432 0 33.792-15.36 33.792-33.792 0-18.432-15.36-33.792-33.792-33.792zM272.896 466.944h-112.64c-18.432 0-33.792 15.36-33.792 33.792 0 18.432 15.36 33.792 33.792 33.792h112.128c18.432 0 33.792-15.36 33.792-33.792 0.512-18.432-14.848-33.792-33.28-33.792z"  horiz-adv-x="1024" />

    
    <glyph glyph-name="jb02" unicode="&#58905;" d="M61.333 418.667c0 176.107 142.827 318.933 318.933 318.933 91.627 0 173.973-38.827 232.213-100.693l29.44 29.44c-65.707 69.44-158.507 112.853-261.547 112.853-199.147 0-360.533-161.387-360.533-360.533 0-180.693 133.12-329.92 306.56-356.053l12.373 37.12 1.387 2.88c-157.227 19.733-278.827 153.6-278.827 316.053zM421.867 418.667c0 12.267-5.44 23.147-13.867 30.827v163.307h-41.6v-155.093c-44.267-17.92-22.293-59.307-22.293-59.307l-98.987-101.653 31.893-26.667 104.213 107.093c22.613 0.533 40.64 18.88 40.64 41.493zM790.827 279.787c45.013 29.76 74.773 80.747 74.773 138.773 0 91.947-74.453 166.4-166.4 166.4-91.947 0-166.4-74.56-166.4-166.4 0-58.027 29.76-109.013 74.773-138.773-123.733-38.933-213.44-154.453-213.44-290.987h41.6c0 145.493 117.973 263.467 263.467 263.467s263.467-117.973 263.467-263.467h41.6c0 136.533-89.813 252.053-213.44 290.987zM699.2 293.867c-68.907 0-124.8 55.893-124.8 124.8s55.893 124.8 124.8 124.8c68.907 0 124.8-55.893 124.8-124.8 0-68.907-55.893-124.8-124.8-124.8z"  horiz-adv-x="1024" />

    
    <glyph glyph-name="yonghu" unicode="&#58890;" d="M958.143442-63.9988c-20.479974 177.279778-211.071736 319.9996-446.143442 319.9996s-425.599468-142.719822-446.143442-319.9996H958.079442zM512 320.00072c273.535658 0 496.959379-174.271782 511.295361-393.599508a63.93592 63.93592 0 0 0-63.359921-54.399932H64.06456a63.61592 63.61592 0 0 0-63.359921 54.335932C14.976621 145.728938 238.464342 320.00072 512 320.00072z m0 127.99984a191.99976 191.99976 0 1 1 0 383.99952 191.99976 191.99976 0 0 1 0-383.99952z m0-63.99992a255.99968 255.99968 0 1 0 0 511.99936 255.99968 255.99968 0 0 0 0-511.99936z"  horiz-adv-x="1024" />

    
    <glyph glyph-name="duihao" unicode="&#58926;" d="M509.866667-110.933333c-273.066667 0-492.8 221.866667-492.8 492.8 0 273.066667 221.866667 492.8 492.8 492.8 273.066667 0 492.8-221.866667 492.8-492.8 0-270.933333-221.866667-492.8-492.8-492.8z m0 906.666666c-228.266667 0-411.733333-185.6-411.733334-411.733333 0-228.266667 185.6-411.733333 411.733334-411.733333 228.266667 0 411.733333 185.6 411.733333 411.733333 0 226.133333-185.6 411.733333-411.733333 411.733333zM755.2 522.666667c-17.066667 19.2-44.8 21.333333-64 4.266666l-273.066667-232.533333-87.466666 91.733333c-17.066667 19.2-44.8 19.2-64 2.133334-19.2-17.066667-19.2-46.933333-2.133334-64l117.333334-123.733334c8.533333-8.533333 21.333333-14.933333 32-14.933333s21.333333 4.266667 29.866666 10.666667l307.2 260.266666c19.2 17.066667 21.333333 46.933333 4.266667 66.133334z"  horiz-adv-x="1024" />

    
    <glyph glyph-name="mima" unicode="&#58990;" d="M476.288 206.656v-91.648c0-19.776 15.872-35.776 35.648-35.776a35.84 35.84 0 0 1 35.84 35.776v91.648a83.2 83.2 0 0 1-35.84 158.464 83.264 83.264 0 0 1-35.648-158.464zM881.344 540.032H313.984c-0.896 7.872-2.368 15.552-2.368 23.68a204.032 204.032 0 0 0 204.032 204.032c62.656 0 117.888-28.736 155.328-73.152l0.704 0.384c8.768-11.072 21.76-18.624 36.992-18.624a48 48 0 0 1 48 48 46.976 46.976 0 0 1-9.92 27.904l0.32 0.256c-0.64 0.832-1.344 1.408-1.92 2.24-1.472 1.728-2.88 3.456-4.608 4.992-54.848 63.104-134.656 103.936-224.832 103.936A300.096 300.096 0 0 1 215.68 563.648c0-8.064 1.216-15.808 1.856-23.616h-74.88c-37.888 0-68.608-30.72-68.608-68.608v-498.496c0-37.888 30.72-68.608 68.608-68.608h738.88c37.888 0 68.48 30.72 68.48 68.608V471.424c0 37.888-30.784 68.608-68.672 68.608z m-27.328-540.224H169.92V442.816h684.032v-443.008z"  horiz-adv-x="1024" />

    
    <glyph glyph-name="bihe" unicode="&#58920;" d="M217.6 595.2L0 384l211.2-211.2M32 729.6h960c19.2 0 32 12.8 32 32v38.4c0 19.2-12.8 32-32 32H32c-19.2 0-32-12.8-32-32v-38.4c0-12.8 12.8-32 32-32zM32-64h960c19.2 0 32 12.8 32 32v38.4c0 19.2-12.8 32-32 32H32c-19.2 0-32-12.8-32-32v-38.4c0-19.2 12.8-32 32-32zM441.6 332.8h550.4c19.2 0 32 12.8 32 32v38.4c0 19.2-12.8 32-32 32H441.6c-19.2 0-32-12.8-32-32v-38.4c0-19.2 12.8-32 32-32z"  horiz-adv-x="1024" />

    
    <glyph glyph-name="yiwancheng" unicode="&#59358;" d="M1023.650475 695.184043c0.238933 2.783915 0.349525 5.578752 0.349525 8.368128 0 76.708523-62.412117 139.122005-139.122005 139.122005-1.579691 0-3.108864-0.060075-6.679211-0.221184l-733.629099 0.045056c-1.809067 0.088747-3.644075 0.174763-5.554176 0.174763C62.425771 842.672811 0.118784 780.384939 0.118784 703.729664l0.195243-11.210752H0L0.398677 83.39456l-0.16384-20.866389c0-75.795115 61.651627-137.446741 137.431723-137.446742 1.709397 0 7.173461 0.24576 7.269035 0.24576l730.740053-0.086016c3.052885-0.365909 6.362453-0.480597 9.777152-0.480597 36.667392 0 71.165269 14.286848 97.135275 40.237739 25.974101 25.944064 40.282795 60.391424 40.282794 97.049258l-0.150186 12.303019h0.939349l-0.009557 620.833451zM140.65664-15.141547l-2.648747 0.2048c-43.536384 0-77.953707 35.693909-78.35921 81.199104V567.709696h904.389973l0.475136-496.727381-0.909312-2.934102c-0.544768-1.878699-0.820565-3.664555-0.820565-5.293397 0-41.340928-32.303787-75.520683-73.560064-77.808981l-11.072854-0.63488v0.540672l-737.494357 0.006826z m823.371093 642.483542H59.712853l-0.385024 67.500714 0.869718 2.994176c0.529749 1.865045 0.800085 3.713707 0.800085 5.373952 0 43.236011 35.551915 78.488917 80.038571 78.633643l0.458752 0.070997 740.203178-0.02048 2.725206-0.2048c43.33568 0 78.592683-35.257003 78.592682-78.592682 0-1.358507 0.199339-2.753877 0.669014-4.644864l0.341333-0.903851v-70.206805z m0 0M699.955883 425.644032c-8.067755 0-15.675392-3.149824-21.415254-8.889685L449.798144 188.002304l-109.262165 109.252608c-5.674325 5.738496-13.258752 8.899243-21.336064 8.899243-8.084139 0-15.691776-3.155285-21.416619-8.873302-5.712555-5.649749-8.882859-13.206869-8.907435-21.285546-0.019115-8.093696 3.145728-15.723179 8.893782-21.490347l130.588672-130.592768c5.698901-5.69344 13.317461-8.828245 21.441194-8.828245 8.111445 0 15.727275 3.134805 21.430272 8.837802l250.056704 250.055339c5.709824 5.644288 8.878763 13.191851 8.907435 21.280085 0.016384 8.129195-3.15392 15.772331-8.88832 21.486251-5.683883 5.743957-13.266944 8.903339-21.345621 8.903339h-0.004096z m0 0"  horiz-adv-x="1024" />

    
    <glyph glyph-name="yizi" unicode="&#58884;" d="M805.6 362h-18.2L814 786.3c0.7 12.6-3.5 23.1-11.8 31.9C793.1 827.9 780 832 765.5 832H267.3c-13.5 0-26.5-4-35.6-13.7-9.1-9.7-13.7-22-12.9-35.4L245.4 362h-23.9c-24.8 0-46.5-19.1-46.5-43.9v-45c0-24.8 21.7-46.1 46.5-46.1h16.1l-18.9-267.2c-0.9-12.4 8.5-22.8 20.8-23.7 0.5 0 1.1 0.1 1.6 0.1 11.7 0 21.6 8.5 22.4 20.4L282.7 227h35.1l19-211c1.1-11.7 10.8-20.2 22.4-20.2 0.7 0 1.3 0.2 2 0.2 12.4 1.1 21.5 11.5 20.4 23.9l-18.6 207h307l-18.6-207c-1.1-12.4 8-23 20.4-24.1 0.7-0.1 1.4 0.1 2 0.1 11.5 0 21.3 8.3 22.4 20L715 227h35.1l19.1-270.3c0.8-11.9 10.7-20.6 22.4-20.6 0.5 0 1.1 0.2 1.6 0.2 12.4 0.9 21.7 11.1 20.8 23.5L795.2 227h10.5c24.8 0 43.4 21.3 43.4 46.1v45c-0.1 24.8-18.6 43.9-43.5 43.9zM267.3 790h498.1c2.4 0 3.8-1.2 3.7-1l-26.8-427H290.5l-26.1 426.4c0.5 0.5 1.4 1.6 2.9 1.6zM805 272H219v44h586v-44zM381.6 431h269.6c12.4 0 22.5 8.6 22.5 21s-10.1 21-22.5 21H381.6c-12.4 0-22.5-8.6-22.5-21s10.1-21 22.5-21z"  horiz-adv-x="1024" />

    
    <glyph glyph-name="youjian" unicode="&#59030;" d="M194.461538 486.153846h636.307693c19.692308 0 35.692308-16 35.692307-35.692308v-375.384615c0-19.692308-16-35.692308-35.692307-35.692308H194.461538c-19.692308 0-35.692308 16-35.692307 35.692308V450.461538c0 19.692308 16 35.692308 35.692307 35.692308zM843.076923 14.892308H182.153846c-26.461538 0-47.876923 21.538462-47.876923 47.876923V462.769231c0 26.461538 21.538462 47.876923 47.876923 47.876923h660.923077c26.461538 0 47.876923-21.538462 47.876923-47.876923v-400c0-26.338462-21.538462-47.876923-47.876923-47.876923zM182.153846 486.153846c-12.923077 0-23.384615-10.461538-23.384615-23.384615v-400c0-12.923077 10.461538-23.384615 23.384615-23.384616h660.923077c12.923077 0 23.384615 10.461538 23.384615 23.384616V462.769231c0 12.923077-10.461538 23.384615-23.384615 23.384615H182.153846zM159.507692 104.615385h706.707693v-29.538462c0-19.076923-15.384615-34.461538-34.461539-34.461538H193.969231c-19.076923 0-34.461538 15.384615-34.461539 34.461538v29.538462zM668.307692 300.8l197.907693-125.169231v23.138462l-177.723077 117.046154zM138.657231 468.455385l15.988923 23.952 262.971077-175.544616-15.990154-23.953231zM150.4 121.969231l-16 24 380.553846 252.184615 368.369231-234.215384-15.384615-24.246154-352.615385 224.123077zM642.830769 284.923077c-4.061538 0-8.246154 1.723077-11.076923 5.169231-5.046154 6.153846-4.307692 15.138462 1.846154 20.307692L843.076923 485.538462c6.153846 5.046154 15.138462 4.307692 20.307692-1.846154 5.046154-6.153846 4.307692-15.138462-1.846153-20.307693L652.061538 288.246154c-2.707692-2.215385-6.030769-3.323077-9.230769-3.323077zM202.215385 154.707692l313.107692 204.061539L813.538462 173.784615 515.323077 334.030769zM267.076923 425.353846l34.092308 20.8v42.092308L267.076923 504.492308v44.8l34.092308 11.815384v45.169231L267.076923 622.523077V676.923077h58.584615l9.476924-30.276923h45.907692l12.676923 30.276923h38.769231l18.584615-30.276923h44.184615l20.923077 30.276923h43.323077l25.846154-30.276923h42.092308l7.753846 30.276923h142.523077v-155.692308l-35.2-14.646154v-35.323077l37.784615-17.353846v-22.76923L644.184615 318.769231l-130.707692 80.861538-110.769231-73.476923zM645.415385 288.615385c-2.461538 0-4.923077 0.615385-7.138462 1.96923l-124.184615 76.923077-104.246154-69.16923c-4.676923-3.076923-10.953846-2.953846-15.507692 0.36923l-159.63077 116.8c-3.692308 2.707692-5.661538 7.015385-5.538461 11.446154 0.246154 4.553846 2.584615 8.615385 6.523077 10.953846l38.4 23.261539v9.846154L247.753846 483.692308c-4.676923 2.215385-7.753846 7.015385-7.753846 12.184615v63.138462c0 5.784615 3.692308 10.953846 9.107692 12.8l24.984616 8.615384v8.738462l-26.338462 12.553846c-4.676923 2.215385-7.753846 7.015385-7.753846 12.184615V690.461538c0 7.507692 6.030769 13.538462 13.538462 13.538462h82.092307c5.907692 0 11.2-3.815385 12.923077-9.476923l6.523077-20.8h8l9.230769 22.030769c2.092308 5.046154 7.015385 8.369231 12.43077 8.369231h55.384615c4.676923 0 9.107692-2.461538 11.569231-6.523077l14.523077-23.876923h14.76923l16.861539 24.492308c2.584615 3.692308 6.646154 5.907692 11.2 5.907692h56.615384c3.938462 0 7.753846-1.723077 10.338462-4.8l21.784615-25.6h8.492308l5.169231 20.184615c1.476923 6.030769 6.892308 10.215385 13.169231 10.215385h166.646153c7.507692 0 13.538462-6.030769 13.538462-13.538462v-178.215384c0-5.415385-3.323077-10.338462-8.369231-12.430769l-26.707692-11.2 29.784615-13.661539c4.8-2.215385 7.876923-7.015385 7.876923-12.307692v-37.784616c0-4.061538-1.846154-7.876923-4.923077-10.461538L654.030769 291.692308c-2.584615-2.092308-5.538462-3.076923-8.615384-3.076923z m-131.692308 108.553846c2.461538 0 4.923077-0.615385 7.138461-1.969231l123.323077-76.307692L780.307692 431.138462v22.76923L750.4 467.692308c-4.8 2.215385-7.876923 7.015385-7.876923 12.307692v17.6c0 5.415385 3.323077 10.338462 8.369231 12.430769l26.830769 11.2V676.923077H635.2l-5.169231-20.184615c-1.476923-6.030769-6.892308-10.215385-13.169231-10.215385h-25.230769c-3.938462 0-7.753846 1.723077-10.338461 4.8L559.507692 676.923077h-43.323077l-16.861538-24.492308c-2.584615-3.692308-6.646154-5.907692-11.2-5.907692h-29.538462c-4.676923 0-9.107692 2.461538-11.56923 6.523077L432.492308 676.923077h-38.769231l-9.230769-22.030769c-2.092308-5.046154-7.015385-8.369231-12.43077-8.369231h-26.953846c-5.907692 0-11.2 3.815385-12.923077 9.476923l-6.523077 20.923077H267.076923v-54.4l26.338462-12.553846c4.676923-2.215385 7.753846-7.015385 7.753846-12.184616v-26.953846c0-5.784615-3.692308-10.953846-9.107693-12.8l-24.984615-8.615384v-44.923077l26.338462-12.43077c4.676923-2.215385 7.753846-7.015385 7.753846-12.184615v-25.969231c0-4.676923-2.461538-9.107692-6.523077-11.56923L267.076923 425.353846 402.707692 326.153846l103.507693 68.8c2.338462 1.353846 4.923077 2.215385 7.507692 2.215385z m-226.092308 56.492307zM295.261538 441.846154l97.353847-79.138462 119.384615 75.2 126.153846-75.2 106.215385 108.923077 35.076923-18.707692v-22.153846l-135.384616-112.369231L512 401.723077l-107.938462-78.769231-132.553846 103.261539zM734.769231 548.923077c52.307692 0 94.769231 42.461538 94.769231 94.769231s-42.461538 94.769231-94.769231 94.76923c-10.215385 0-20.061538-1.6-29.292308-4.676923-9.353846-3.076923-18.092308-7.507692-25.969231-13.16923-24-17.107692-39.507692-45.169231-39.507692-76.923077 0-52.307692 42.461538-94.769231 94.769231-94.769231zM734.769231 522.461538c-66.830769 0-121.230769 54.4-121.230769 121.23077 0 38.892308 18.830769 75.692308 50.461538 98.461538 10.215385 7.384615 21.415385 13.046154 33.230769 16.861539 12.061538 3.938462 24.738462 5.907692 37.538462 5.907692 66.830769 0 121.230769-54.4 121.230769-121.230769s-54.4-121.230769-121.230769-121.23077z m0 216c-9.969231 0-19.938462-1.6-29.292308-4.676923-9.230769-3.076923-17.969231-7.507692-25.969231-13.16923C654.769231 702.892308 640 674.092308 640 643.692308c0-52.307692 42.461538-94.769231 94.769231-94.769231s94.769231 42.461538 94.769231 94.769231-42.461538 94.769231-94.769231 94.76923zM716.430769 593.353846c-3.2 0-6.523077 1.107692-9.107692 3.323077l-37.046154 30.523077c-6.153846 5.046154-7.015385 14.153846-1.969231 20.307692s14.153846 7.015385 20.307693 1.969231l26.830769-22.030769 63.015384 64.615384c5.538462 5.661538 14.646154 5.784615 20.307693 0.246154s5.784615-14.646154 0.246154-20.307692l-72.246154-74.092308c-2.830769-3.076923-6.523077-4.553846-10.338462-4.553846zM351.630769 593.230769h194.338462M545.969231 578.830769H351.630769c-8 0-14.4 6.4-14.4 14.4s6.4 14.4 14.4 14.4h194.338462c8 0 14.4-6.4 14.4-14.4s-6.4-14.4-14.4-14.4zM351.630769 531.692308h233.230769M584.861538 517.292308H351.630769c-8 0-14.4 6.4-14.4 14.4s6.4 14.4 14.4 14.4h233.230769c8 0 14.4-6.4 14.4-14.4s-6.4-14.4-14.4-14.4zM351.630769 470.153846h90.953846m35.815385 0h37.907692M516.307692 455.753846h-37.907692c-8 0-14.4 6.4-14.4 14.4s6.4 14.4 14.4 14.4h37.907692c8 0 14.4-6.4 14.4-14.4s-6.4-14.4-14.4-14.4z m-73.723077 0h-90.953846c-8 0-14.4 6.4-14.4 14.4s6.4 14.4 14.4 14.4h90.953846c8 0 14.4-6.4 14.4-14.4s-6.4-14.4-14.4-14.4z"  horiz-adv-x="1024" />

    
    <glyph glyph-name="daiban1" unicode="&#58986;" d="M353.802 260.072H165.91v-63.1h181.684a533.437 533.437 0 0 0 6.208 63.1zM165.974 505.048h405.03a290.158 290.158 0 0 0 108.41 27.135v35.965h-513.44v-63.1zM108.633 86.45c-23.87 0-33.79 9.984-33.79 33.79V799.238c0 23.87 9.984 33.79 33.79 33.79h628.121c23.87 0 33.854-9.983 33.854-33.79v-271.599c26.878-4.928 38.59-12.991 62.908-23.742V844.61A51.325 51.325 0 0 1 782.19 895.936H63.26a51.325 51.325 0 0 1-51.325-51.325V74.42c0-28.35 22.975-51.324 51.325-51.324h324.972c-12.991 24.254-23.23 36.093-30.206 63.292H108.633zM165.974 722.187h513.44v-63.1h-513.44v63.1z m538.974-235.89a307.117 307.117 0 1 1 0-614.233 307.117 307.117 0 0 1 0 614.234z m0.576-555.293a246.577 246.577 0 1 0-0.064 493.217 246.577 246.577 0 0 0 0.064-493.217zM165.974 414.11v-63.1h225.842c10.303 22.335 22.142 43.453 35.39 63.1H165.973z m541.47-264.687V292.07h-62.012v-205.811h205.81v63.164H707.445z"  horiz-adv-x="1024" />

    
    <glyph glyph-name="history" unicode="&#58882;" d="M650.057309 463.662341c0 12.994965-10.527774 23.479761-23.477714 23.479761L207.164247 487.142102c-12.950963 0-23.479761-10.484795-23.479761-23.479761s10.529821-23.477714 23.479761-23.477714l419.415348 0C639.529535 440.183604 650.057309 450.666352 650.057309 463.662341zM470.196918 308.998819c0 12.994965-10.528797 23.479761-23.479761 23.479761L207.164247 332.47857999999997c-12.950963 0-23.479761-10.484795-23.479761-23.479761s10.529821-23.479761 23.479761-23.479761l239.551888 0C459.667098 285.51803500000005 470.196918 296.00283 470.196918 308.998819zM207.120244 594.8481489999999l419.414325 0c12.994965 0 23.479761 10.484795 23.479761 23.479761 0 12.994965-10.529821 23.479761-23.479761 23.479761L207.120244 641.80767c-12.950963 0-23.477714-10.484795-23.477714-23.479761C183.641507 605.331921 194.169281 594.8481489999999 207.120244 594.8481489999999zM207.209272 177.76798499999995c-12.951987 0-23.479761-10.482749-23.479761-23.477714 0-12.994965 10.527774-23.479761 23.479761-23.479761l166.249395 0c12.950963 0 23.479761 10.484795 23.479761 23.479761 0 12.994965-10.529821 23.477714-23.479761 23.477714L207.209272 177.76798499999995zM860.360036 149.48687199999995c0 12.994965-10.529821 23.479761-23.479761 23.479761l-66.912969 0 0 96.78123c0 12.994965-10.529821 23.479761-23.479761 23.479761-12.951987 0-23.479761-10.484795-23.479761-23.479761l0-143.783731 113.87249 0C849.831238 125.96413199999995 860.360036 136.49190599999997 860.360036 149.48687199999995zM167.165254-36.851046999999994l347.257935 0c12.994965 0 23.52274 10.529821 23.52274 23.524786s-10.527774 23.477714-23.477714 23.477714L167.165254 10.151452999999947c-31.099299 0-56.429197 25.286919-56.429197 56.386218L110.736057 706.077439c0 31.101345 25.284873 56.43022 56.429197 56.43022l499.500315 0c31.099299 0 56.386218-25.329898 56.386218-56.43022l0-242.416122c0-12.994965 10.527774-23.477714 23.477714-23.477714 12.951987 0 23.479761 10.482749 23.479761 23.477714L770.009262 706.077439c0 57.003272-46.38647 103.433744-103.388718 103.433744L167.165254 809.511183c-57.046251 0-103.433744-46.429449-103.433744-103.433744l0-639.539768C63.732533 9.536445999999955 110.164029-36.851046999999994 167.165254-36.851046999999994zM746.487545-36.851046999999994c115.810632 0 210.03769 94.227058 210.03769 210.03769s-94.227058 210.03769-210.03769 210.03769c-115.812679 0-209.992665-94.227058-209.992665-210.03769S630.719892-36.851046999999994 746.487545-36.851046999999994zM746.487545 336.222857c89.907683 0 163.033144-73.125461 163.033144-163.03519s-73.125461-163.03519-163.033144-163.03519c-89.864704 0-162.990165 73.125461-162.990165 163.03519S656.621818 336.222857 746.487545 336.222857z"  horiz-adv-x="1024" />

    
    <glyph glyph-name="gengduo" unicode="&#58933;" d="M156.511242 383.948836m-94.244429 0a94.244429 94.244429 0 1 1 188.488858 0 94.244429 94.244429 0 1 1-188.488858 0ZM511.897672 383.948836m-94.244429 0a94.244429 94.244429 0 1 1 188.488858 0 94.244429 94.244429 0 1 1-188.488858 0ZM867.181773 383.948836m-94.244429 0a94.244429 94.244429 0 1 1 188.488858 0 94.244429 94.244429 0 1 1-188.488858 0Z"  horiz-adv-x="1024" />

    
    <glyph glyph-name="yiwancheng1" unicode="&#58883;" d="M37 424h955v-417.5l-56.2-56.3H89.5l-58.1 58.2zM916.8-68.5H107.2c-52.6 0-95.2 42.6-95.2 95.2V741.3c0 52.6 42.6 95.2 95.2 95.2h809.5c52.6 0 95.2-42.6 95.2-95.2v-714.5c0.1-52.7-42.5-95.3-95.1-95.3z m-2.4 855H104.6c-26.3 0-47.6-21.3-47.6-47.6v-117.4h905V738.9c0 26.3-21.3 47.6-47.6 47.6z m47.6-210H57v-547.4c0-26.3 21.3-47.6 47.6-47.6h809.8c26.3 0 47.6 21.3 47.6 47.6V576.5zM429.3 134L310.6 252.7c-9.3 9.3-9.3 24.4 0 33.7 9.3 9.3 24.4 9.3 33.7 0l111.9-111.9 216 215.5c9.8 9.7 25.6 9.7 35.3 0 9.8-9.8 9.8-25.7 0-35.4L486.4 134c-7.5-7.5-17.7-11.7-28.3-11.8-10.8-0.1-21.2 4.2-28.8 11.8z"  horiz-adv-x="1024" />

    
    <glyph glyph-name="sousuo" unicode="&#59164;" d="M644.266667 281.6l162.133333-162.133333c8.533333-8.533333 8.533333-21.333333 0-29.866667-8.533333-8.533333-21.333333-8.533333-29.866667 0l-162.133333 162.133333c-46.933333-38.4-102.4-59.733333-166.4-59.733333-140.8 0-256 115.2-256 256s115.2 256 256 256c115.2 0 213.333333-76.8 247.466667-187.733333 4.266667-12.8-4.266667-21.333333-12.8-25.6-12.8-4.266667-21.333333 4.266667-25.6 12.8-25.6 89.6-110.933333 153.6-204.8 153.6-119.466667 0-213.333333-93.866667-213.333334-213.333334s93.866667-213.333333 213.333334-213.333333c98.133333 0 179.2 64 204.8 153.6 4.266667 12.8 17.066667 17.066667 25.6 12.8 12.8-4.266667 17.066667-17.066667 12.8-25.6-12.8-29.866667-29.866667-59.733333-51.2-89.6z"  horiz-adv-x="1024" />

    
    <glyph glyph-name="flow" unicode="&#59937;" d="M672 416a32 32 0 0 0-32 32v64h-192a32 32 0 0 0 0 64h224a32 32 0 0 0 32-32v-96a32 32 0 0 0-32-32z m-96-224h-224a32 32 0 0 0-32 32v96a32 32 0 0 0 64 0v-64h192a32 32 0 0 0 0-64z m-128 224H256a32 32 0 0 0-32 32V640a32 32 0 0 0 32 32h192a32 32 0 0 0 32-32v-192a32 32 0 0 0-32-32z m-160 64h128V608H288v-128z m480-384h-192a32 32 0 0 0-32 32v192a32 32 0 0 0 32 32h192a32 32 0 0 0 32-32v-192a32 32 0 0 0-32-32z m-160 64h128v128h-128v-128z"  horiz-adv-x="1024" />

    
    <glyph glyph-name="xuesheng1" unicode="&#58880;" d="M501.453125 255.06445312000005c-3.42773438 0-6.76757813 0.87890625-9.84375 2.63671876L129.23632812 468.7265625c-6.06445313 3.515625-9.75585938 10.10742188-9.66796874 17.13867188 0.08789063 7.03125 3.95507813 13.44726563 10.10742187 16.87499999l383.5546875 211.02539063c5.9765625 3.33984375 13.27148438 3.25195313 19.24804688-0.26367188l362.46093749-210.93749999c6.06445313-3.515625 9.75585938-10.10742188 9.66796876-17.13867188-0.08789063-7.03125-3.95507813-13.44726563-10.10742188-16.875L510.85742187 257.52539062000005c-2.90039063-1.66992188-6.15234375-2.4609375-9.40429687-2.46093749zM178.71875 485.07421875l323.0859375-188.0859375 343.56445313 189.05273438-323.08593751 188.08593749L178.71875 485.07421875zM825.80292969 460.696875l39.11132812 0.37265625 2.11289063-221.74804688-39.11132813-0.37265624zM514.90039063 51.86132812000005C370.3203125 51.86132812000005 252.72265625 169.45898437000005 252.72265625 314.0390625V405.53320313h39.11132813v-91.49414063c0-123.046875 100.10742188-223.06640625 223.06640624-223.06640625s223.06640625 100.10742188 223.06640626 223.06640625V420.47460938h39.11132812v-106.43554688c0-144.58007813-117.59765625-262.17773438-262.17773438-262.17773438z"  horiz-adv-x="1024" />

    
    <glyph glyph-name="icon-test" unicode="&#58960;" d="M896.844 826.552H118.96c-37.434 0-67.89-30.965-67.89-69.03v-571.278c0-38.065 30.456-69.03 67.89-69.03h321.05v-125.599H335.039c-13.625 0-24.677-11.232-24.677-25.083 0-13.852 11.052-25.084 24.677-25.084h345.728c13.626 0 24.678 11.232 24.678 25.084 0 13.851-11.04 25.083-24.678 25.083H575.793v125.61h321.05c37.434 0 67.891 30.965 67.891 69.03V757.521c0 38.066-30.457 69.03-67.89 69.03zM118.96 776.385h777.883c10.227 0 18.547-8.456 18.547-18.852v-458.3H100.413V757.521c0 10.397 8.32 18.864 18.548 18.864zM526.45-8.373h-37.084V117.225h37.084v-125.598z m370.394 175.776H118.96c-10.228 0-18.548 8.456-18.548 18.852v62.8h814.978v-62.8c0-10.396-8.32-18.852-18.547-18.852z"  horiz-adv-x="1024" />

    
    <glyph glyph-name="icon-test1" unicode="&#58961;" d="M803.4-67c-32.8 0-65.2 12.8-89.2 36.6-36 36-46.4 90-27.6 136.4L293.2 499.6c-46.2-18.8-100.4-8.4-136.4 27.6-36.4 36.4-47 92.8-26 139.8 2.6 6 8.2 10.4 14.6 11.6 6.4 1.2 13.2-0.8 17.8-5.6l46.6-46.6 38.4 38.4-46.6 46.6c-4.6 4.6-6.8 11.4-5.6 17.8 1.2 6.4 5.6 12 11.6 14.6 47.2 21 103.4 10.4 139.8-26 36-36 46.4-90 27.6-136.4L768.8 188c46.2 18.8 100.4 8.4 136.4-27.6 36.4-36.4 47-92.8 26-139.8-2.6-6-8.2-10.4-14.6-11.6-6.4-1.2-13.2 0.8-17.8 5.6L852 61.2l-38.4-38.4 46.6-46.6c4.6-4.6 6.8-11.4 5.6-17.8-1.2-6.4-5.6-12-11.6-14.6-16.2-7.2-33.6-10.8-50.8-10.8z m-506 610.6c5.2 0 10.2-2 14.2-5.8l413.6-413.6c6.4-6.4 7.6-16 3.4-24-18.6-33.2-12.8-75.4 14.2-102.4 17.2-17.2 40.6-25.8 64.2-25l-35.4 35.4c-3.8 3.8-5.8 8.8-5.8 14.2s2.2 10.4 5.8 14.2l66.8 66.8c7.8 7.8 20.4 7.8 28.2 0L902 68c1 23.4-7.8 47-25 64.2-27 27-69.2 32.8-102.4 14.2-7.8-4.4-17.6-3-24 3.4L337 563.2c-6.4 6.4-7.6 16-3.4 24 18.6 33.2 12.8 75.4-14.2 102.4-17.2 17.2-40.6 25.8-64.2 25l35.4-35.4c3.8-3.8 5.8-8.8 5.8-14.2s-2.2-10.4-5.8-14.2L224 584c-3.8-3.8-8.8-5.8-14.2-5.8-5.4 0-10.4 2.2-14.2 5.8l-35.4 35.4c-1-23.4 7.8-47 25-64.2 27-27 69.2-32.8 102.4-14.2 3 1.8 6.4 2.6 9.8 2.6zM218.6-54.2c-5.4 0-10.4 2.2-14.2 5.8L139 17c-3.8 3.8-5.8 8.8-5.8 14.2s2.2 10.4 5.8 14.2l262.4 262.4c7.8 7.8 20.4 7.8 28.2 0 7.8-7.8 7.8-20.4 0-28.2l-248-248.4 37-37 248.2 248.2c7.8 7.8 20.4 7.8 28.2 0 7.8-7.8 7.8-20.4 0-28.2L232.8-48.4c-3.8-3.6-9-5.8-14.2-5.8zM648.2 380c-5.2 0-10.2 2-14.2 5.8-7.8 7.8-7.8 20.4 0 28.2l188.2 188.2c6.6 6.6 17.2 7.8 25 2.6 0.6-0.4 15.8-10.4 37.2-31.8 12-12 25.2-31.4 37-51.2-2.6 33.4-9.6 72.4-26 105.8-27 54.8-102.6 129.6-134 159.4l-48-48 71.4-71.4c7.8-7.8 7.8-20.4 0-28.2L596.6 451.2c-7.8-7.8-20.4-7.8-28.2 0-7.8 7.8-7.8 20.4 0 28.2l174 174-71.4 71.4c-7.8 7.8-7.8 20.4 0 28.2l75.6 75.6c7.6 7.6 19.6 7.8 27.6 0.8C779 825 893.6 721.6 931.2 645c42.8-86.8 30-199.6 29.4-204.4-1-8.8-7.8-16-16.6-17.4-8.8-1.4-17.4 3.2-21.4 11.2-10.8 23-44 87.6-66.6 110-7 7-13.2 12.6-18 16.6L662.4 386c-4-4-9-6-14.2-6z"  horiz-adv-x="1024" />

    
    <glyph glyph-name="icon-test2" unicode="&#58962;" d="M268.2-63.1c-107.3 0-194.5 87.3-194.5 194.5S161 325.9 268.2 325.9s194.5-87.3 194.5-194.5-87.2-194.5-194.5-194.5z m0 357.1c-89.7 0-162.6-72.9-162.6-162.6 0-89.7 72.9-162.6 162.6-162.6s162.6 72.9 162.6 162.6c0 89.7-72.9 162.6-162.6 162.6z m32 238.2c-82.4 0-149.5 67-149.5 149.5s67 149.5 149.5 149.5c82.4 0 149.5-67 149.5-149.5s-67.1-149.5-149.5-149.5z m0 267c-64.8 0-117.5-52.7-117.5-117.5s52.7-117.5 117.5-117.5 117.5 52.7 117.5 117.5S365 799.2 300.2 799.2z m511.9-753.9c-76.2 0-138.2 62-138.2 138.2 0 76.2 62 138.2 138.2 138.2 76.2 0 138.2-62 138.2-138.2 0-76.2-62-138.2-138.2-138.2z m0 244.5c-58.6 0-106.3-47.7-106.3-106.3s47.7-106.3 106.3-106.3 106.3 47.7 106.3 106.3-47.7 106.3-106.3 106.3z m-260.7-9.4c-77.8 0-141.2 63.3-141.2 141.2s63.3 141.2 141.2 141.2 141.2-63.3 141.2-141.2-63.3-141.2-141.2-141.2z m0 250.4c-60.2 0-109.3-49-109.3-109.3 0-60.2 49-109.3 109.3-109.3s109.3 49 109.3 109.3-49 109.3-109.3 109.3z m233.2 0c-64 0-116.2 52.1-116.2 116.2s52.1 116.2 116.2 116.2S900.8 711 900.8 647s-52.1-116.2-116.2-116.2z m0 200.4c-46.4 0-84.2-37.8-84.2-84.2s37.8-84.2 84.2-84.2 84.2 37.8 84.2 84.2-37.7 84.2-84.2 84.2zM400.1 237.6c-4.1 0-8.2 1.6-11.3 4.7-6.2 6.2-6.2 16.3 0 22.6l65.4 65.4c6.2 6.2 16.3 6.2 22.6 0 6.2-6.2 6.2-16.3 0-22.6l-65.4-65.4c-3.2-3.2-7.3-4.7-11.3-4.7zM651 488.2c-4.1 0-8.2 1.6-11.3 4.7-6.2 6.2-6.2 16.3 0 22.6l64.2 64.2c6.2 6.2 16.3 6.2 22.6 0 6.2-6.2 6.2-16.3 0-22.6l-64.2-64.2c-3.1-3.2-7.2-4.7-11.3-4.7z m-184.6 12.1c-4.1 0-8.2 1.6-11.3 4.7l-69.3 69.3c-6.2 6.2-6.2 16.3 0 22.6 6.2 6.2 16.3 6.2 22.6 0l69.3-69.3c6.2-6.2 6.2-16.3 0-22.6-3.1-3.2-7.2-4.7-11.3-4.7z m250.7-250.7c-4.1 0-8.2 1.6-11.3 4.7L633 327.1c-6.2 6.2-6.2 16.3 0 22.6 6.2 6.2 16.3 6.2 22.6 0l72.8-72.8c6.2-6.2 6.2-16.3 0-22.6-3.2-3.1-7.2-4.7-11.3-4.7z"  horiz-adv-x="1024" />

    
    <glyph glyph-name="icon-test3" unicode="&#58963;" d="M908.022 607.47V763.05c0 70.718-56.574 130.121-130.121 130.121H130.12C59.404 893.171 0 836.597 0 763.05v-478.056c0-65.06 50.917-118.806 113.15-127.292v-158.41c0-70.717 56.574-127.292 127.292-127.292h653.436c70.719 0 127.293 56.575 127.293 127.293V480.177c0 67.89-50.917 118.806-113.149 127.293zM115.978 480.177v-268.73c-31.116 8.487-56.575 36.774-56.575 70.719V763.05c0 39.602 31.116 73.547 73.547 73.547h647.78c39.601 0 73.546-31.116 73.546-73.547v-152.752H240.442c-67.89-2.828-124.464-59.403-124.464-130.121z m848.619-480.884c0-39.602-31.116-70.718-70.719-70.718H240.442c-39.602 0-70.718 31.116-70.718 70.718V480.177c0 39.602 31.116 70.718 70.718 70.718h653.436c39.603 0 70.719-31.116 70.719-70.718v-480.884zM653.436 282.166h254.586v-56.575H653.436z m84.862 141.436h169.724v-56.574H738.298zM653.436 140.73h254.586v-56.574H653.436zM398.851 395.315c-93.348 0-169.724-76.376-169.724-169.724v-16.972c5.658-87.69 79.204-155.58 169.724-155.58 93.348 0 169.724 76.375 169.724 169.723H398.85V395.315zM427.138 423.602v-169.724h169.724c0 93.349-76.376 169.724-169.724 169.724z"  horiz-adv-x="1026" />

    
    <glyph glyph-name="icon-test4" unicode="&#58964;" d="M923.417 746.929H684.425v-52.457H930.53c35.6 0 83.54-35.445 83.54-78.435v-449.98c0-35.15-47.94-76.254-83.54-76.254H684.425v-50.294l246.105-2.163A136.223 136.223 0 0 1 1065.8 173.1v435.91c-7.113 70.317-64.035 137.918-142.383 137.918zM553.222 834h-21.357l-377.29-70.3a120.595 120.595 0 0 1-92.54-112.496V123.88c0-49.22 34.146-93.301 92.54-112.494l377.29-77.345h21.357a95.88 95.88 0 0 1 98.65 98.442V735.576C644.722 791.823 615.924 834 553.221 834z m44.738-801.517a44.842 44.842 0 0 0-44.738-45.43h-7.113L165.84 72.495c-34.198 14.555-51.92 25.026-51.92 69.228l0.294 509.48a69.99 69.99 0 0 0 51.626 61.648l380.268 68.154h7.113a40.585 40.585 0 0 0 44.738-45.43v-703.093zM916.303 419.95H684.391v-53.652h231.912c21.357 0 35.583 4.69 35.583 25.77s-14.157 27.882-35.583 27.882z m0-172.896H684.391v-52.613h231.912c21.357 0 35.583 7.822 35.583 28.902s-14.157 23.71-35.583 23.71z m35.583 302.317c0 21.097-14.226 25.787-35.583 25.787H684.391v-52.682h231.912c21.426 0 35.583 5.815 35.583 26.895z m-578.362-96.123c-55.382 0-103.841 57.01-103.841 121.148s48.46 121.149 103.841 121.149 103.842-57.01 103.842-121.149-41.537-121.148-103.842-121.148z m0 190.376c-31.152 0-51.92-29.664-51.92-69.228s20.768-69.227 51.92-69.227 51.921 29.664 51.921 69.227-20.768 69.228-51.92 69.228z m23.07-241.275H311.22L175.95 123.292h66.354l35.549 70.353h150.224l52.63-102.977h72.516z m-97.299-156.42l54.586 103.841 54.603-103.841H299.295z"  horiz-adv-x="1142" />

    
    <glyph glyph-name="-wodemenhu" unicode="&#58970;" d="M955.36 640L512.16 896 68.64 640v-512l145.28-83.84L512.16-128l297.92 171.84L955.36 128z m-443.2-694.08L284.32 77.44a233.92 233.92 0 0 0 455.36 0z m379.52 219.2l-96-54.72a297.6 297.6 0 0 1-569.6 0l-93.44 54.4V603.2L512.16 822.08l379.2-218.88zM365.6 536a146.56 146.56 0 1 1 146.56 146.56A146.56 146.56 0 0 1 365.6 536z m229.12 0a82.56 82.56 0 1 0-82.56 82.56A82.56 82.56 0 0 0 594.4 536z"  horiz-adv-x="1024" />

    
    <glyph glyph-name="-banshidating" unicode="&#58971;" d="M229.376 342.528c0 16.384-13.312 29.696-29.696 29.696H77.312c-5.12 0-9.728 0.512-14.848 2.048 0.512 0 2.048-2.048 3.584-5.12 1.024-3.072 1.024-5.632 1.024-6.144 2.56 4.096 5.632 8.192 9.216 11.264L502.784 768c5.12 4.096 12.8 4.096 17.92 0l426.496-394.24c5.12-4.608 8.192-8.704 9.216-11.264 0 0.512-0.512 3.072 1.024 6.144 1.024 3.072 3.072 4.608 3.584 4.608-2.56-1.024-7.68-2.048-14.848-2.048h-116.224c-16.384 0-29.696-13.312-29.696-29.696l0.512-355.328 29.696 29.696h-629.76l29.696-29.696-1.024 356.352z m-28.16-385.536h629.248c16.384 0 29.696 13.312 29.696 29.696l-0.512 355.328-29.696-29.696h116.224c70.144 0 93.184 56.832 41.472 104.96l-426.496 393.728c-28.16 25.088-70.656 25.088-98.304 0L36.352 417.28c-51.712-47.616-29.184-104.96 40.96-104.96H199.68l-29.696 29.696 1.536-355.328c0-16.384 13.312-29.696 29.696-29.696zM679.424 348.672c0 98.304-79.36 177.664-177.664 177.664s-177.664-79.36-177.664-177.664 79.36-177.664 177.664-177.664 177.664 79.872 177.664 177.664z m-315.904 0c0 76.288 61.952 138.24 138.24 138.24s138.24-61.952 138.24-138.24-61.952-138.24-138.24-138.24-138.24 61.952-138.24 138.24z m326.656-216.064c7.68-7.68 19.968-8.192 28.16-0.512 7.68 7.68 8.192 19.968 0.512 28.16l-0.512 0.512-83.968 83.968c-7.68 7.68-20.48 7.68-28.16 0s-7.68-20.48 0-28.16l83.968-83.968z"  horiz-adv-x="1024" />

    
    <glyph glyph-name="-xiaoxizhongxin" unicode="&#58972;" d="M532.992 228.864v2.56c-188.928 0-437.76 0-440.32 0.512l235.52 248.832 89.088-67.072L502.784 481.28 593.92 386.048c12.288 13.312 26.112 25.6 40.96 35.84l-87.552 93.184 235.52 181.248v-233.984c17.408-1.536 35.328-5.12 52.224-9.728V696.32c0 57.344-46.592 103.424-104.448 103.424H104.448C46.592 799.744 0 753.664 0 696.32v-414.208c0-57.344 46.592-103.424 104.448-103.424h434.176c-3.584 16.384-5.632 33.28-5.632 50.176z m223.744 519.168L417.792 489.472 78.336 748.032h678.4z m-704.512-465.92V696.32l235.008-181.248-232.448-247.808c-1.536 5.12-2.56 9.728-2.56 14.848zM662.528 294.912l-38.912-38.4 123.904-123.904 276.48 276.48-38.4 38.4L747.52 209.92l-84.992 84.992zM760.32 467.968c-129.024 0-233.472-104.448-233.472-233.472s104.448-233.472 233.472-233.472 233.472 104.448 233.472 233.472-104.448 233.472-233.472 233.472z m0-420.352c-102.912 0-186.368 83.456-186.368 186.368s83.456 186.368 186.368 186.368 186.368-83.456 186.368-186.368-83.456-186.368-186.368-186.368z"  horiz-adv-x="1024" />

    
    <glyph glyph-name="-juecezhichi" unicode="&#58973;" d="M90.624 805.376v-727.04h841.728v727.04H90.624c0-0.512 0 0 0 0z m-77.312 30.72c0 23.04 18.432 41.472 41.472 41.472h913.92c23.04 0 41.472-18.432 41.472-41.472v-789.504c0-23.04-18.432-41.472-41.472-41.472H54.784c-23.04 0-41.472 18.432-41.472 40.96v0.512V836.096z m629.248-222.72c8.192 6.656 10.24 18.432 3.584 26.624-6.144 8.192-18.432 10.24-26.624 3.584L446.464 513.536c-8.192-6.144-10.24-18.432-3.584-26.624 6.144-8.192 18.432-10.24 26.624-3.584l173.056 130.048zM148.992 745.984l-1.536-1.024c8.192 7.168 20.992 6.144 28.16-2.048l0.512-0.512s123.392-143.872 184.32-215.04c-17.408-7.168-28.16-26.112-28.16-26.112L147.456 716.8c-7.68 8.704-7.168 21.504 1.536 29.184z m602.112-114.176L901.632 455.68c7.168-8.192 6.144-20.992-2.048-28.16l1.536 1.024c-8.192-7.168-20.992-6.144-28.16 2.048l-150.016 175.616c13.312 8.192 18.432 14.336 28.16 25.6zM205.312 212.48c0 10.24 8.704 18.944 18.944 18.944s18.944-8.192 18.944-18.432v-77.312c0-10.24-8.704-18.944-18.944-18.944s-18.944 8.192-18.944 18.432v0.512 76.8z m191.488 76.288c0 10.24 8.704 18.944 18.944 18.944s18.944-8.192 18.944-18.432v-153.6c0-10.24-8.704-18.944-18.944-18.944s-18.944 8.192-18.944 18.432v153.6z m191.488 114.688c0 10.752 8.704 18.944 18.944 18.944 10.752 0 18.944-8.704 18.944-18.944v-267.776c0-10.752-8.704-18.944-18.944-18.944-10.752 0-18.944 8.704-18.944 18.944V403.456z m190.976-114.688c0 10.24 8.704 18.944 18.944 18.944s18.944-8.192 18.944-18.432v-153.6c0-10.24-8.704-18.944-18.944-18.944s-18.944 8.192-18.944 18.432v153.6z m-507.904-363.52c0 20.48 9.216 37.376 19.968 37.376H732.16c11.264 0 19.968-17.408 19.968-37.376 0-20.48-9.216-36.864-19.968-37.376H291.328c-11.264 0.512-19.968 16.896-19.968 37.376z m412.672 669.184c42.496 0 76.288 34.304 76.288 76.288 0 42.496-34.304 76.288-76.288 76.288s-76.288-34.304-76.288-76.288c-0.512-41.984 33.792-75.776 76.288-76.288z m0 38.4c-20.992 0-38.4 16.896-38.4 38.4 0 20.992 16.896 38.4 38.4 38.4 20.992 0 38.4-16.896 38.4-38.4-0.512-20.992-17.408-38.4-38.4-38.4zM396.8 384c42.496 0 76.288 34.304 76.288 76.288 0 42.496-34.304 76.288-76.288 76.288-42.496 0-76.288-34.304-76.288-76.288S354.816 384 396.8 384z m0 38.4c-20.992 0-38.4 16.896-38.4 38.4 0 20.992 16.896 38.4 38.4 38.4 20.992 0 38.4-16.896 38.4-38.4 0-20.992-17.408-38.4-38.4-38.4z"  horiz-adv-x="1024" />

    
    <glyph glyph-name="-shujuzhongxin" unicode="&#58974;" d="M29.769 391.589C39.938 630.264 187.419 811.126 416.83 859.563c134.362 28.368 259.656 0.32 373.193-77.88 17.206-11.85 29.674-25.268 16.577-46.986-10.386-17.22-29.13-17.627-51.935-2.342C570.02 856.118 338.878 829.382 194.259 662.429 89.617 541.627 63.128 399.811 115.414 249.49c53.8-154.675 166.06-250.221 328.299-276.382 261.096-42.1 485.559 149.33 489.774 414.19 1.213 76.285-19.285 148.11-58.16 214.175-9.437 16.036-14.25 31.928 1.195 46.554 16.072 15.221 36.364 9.184 50.596-14.807 49.24-83 71.814-173.112 66.298-269.157C978.04 96.266 763.322-100.444 494.31-94.656 250.691-89.413 41.244 115.956 31.334 359.29c-0.438 10.77-1.039 21.534-1.565 32.3zM614.123 494.762c0-15.39 12.48-27.884 27.852-27.884 15.374 0 27.853 12.494 27.853 27.884 0 15.392-12.479 27.884-27.853 27.884-15.372 0-27.852-12.492-27.852-27.884z m0-148.72c0-15.39 12.48-27.886 27.852-27.886 15.374 0 27.853 12.495 27.853 27.888 0 15.393-12.479 27.886-27.853 27.886-15.372 0-27.852-12.493-27.852-27.887z m-352.789-65.064c0-23.965 13.2-37.178 37.138-37.178H484.15v-55.77c-5.31-3.576 3.573 5.318 0 0H354.175c-14.945 0-18.567-3.624-18.567-18.589 0-14.964 3.623-37.177 18.567-37.177h111.407c8.767-13.123 33.385-18.592 50.288-18.592 16.902 0 33.771 5.469 42.55 18.592h111.408c14.944 0 20.114 15.242 20.114 30.208 0 14.962-5.17 25.56-20.114 25.56H539.85c-3.575 5.317 5.31-3.577 0 0V243.8h185.68c23.935 0 37.134 13.214 37.134 37.178v272.65c0 23.967-19.387 43.377-43.325 43.377H304.66c-23.936 0-43.327-19.409-43.327-43.377v-272.651h0.001z m74.273 260.257h352.788c13.21 0 18.567-5.357 18.567-18.588v-55.77c0-13.234-5.357-18.588-18.567-18.588H335.607c-13.211 0-20.116 4.43-20.116 17.661v52.975c0 13.234 6.905 22.31 20.116 22.31z m0-148.717h352.788c13.21 0 18.567-5.36 18.567-18.588v-55.773c0-13.229-5.357-18.588-18.567-18.588H335.607c-13.211 0-18.568 5.36-18.568 18.588V373.93c-0.001 13.229 5.357 18.588 18.568 18.588z"  horiz-adv-x="1024" />

    
    <glyph glyph-name="-fuwuzhongxin" unicode="&#58976;" d="M406.528 607.232H46.592c-19.968 0-35.84-18.432-35.84-40.96s16.384-40.96 35.84-40.96h359.424c19.968 0 35.84 18.432 35.84 40.96 0.512 22.528-15.872 40.96-35.328 40.96zM102.4 540.672c-14.336 0-25.6 11.264-25.6 25.6s11.264 25.6 25.6 25.6 25.6-11.264 25.6-25.6-11.776-25.6-25.6-25.6z m123.904 0c-14.336 0-25.6 11.264-25.6 25.6s11.264 25.6 25.6 25.6 25.6-11.264 25.6-25.6-11.264-25.6-25.6-25.6z m124.416 0c-14.336 0-25.6 11.264-25.6 25.6s11.264 25.6 25.6 25.6 25.6-11.264 25.6-25.6-11.264-25.6-25.6-25.6zM406.528 793.6H46.592c-19.968 0-35.84-18.432-35.84-40.96s16.384-40.96 35.84-40.96h359.424c19.968 0 35.84 18.432 35.84 40.96 0.512 22.528-15.872 40.96-35.328 40.96zM102.4 726.528c-14.336 0-25.6 11.264-25.6 25.6s11.264 25.6 25.6 25.6 25.6-11.264 25.6-25.6-11.776-25.6-25.6-25.6z m123.904 0c-14.336 0-25.6 11.264-25.6 25.6s11.264 25.6 25.6 25.6 25.6-11.264 25.6-25.6-11.264-25.6-25.6-25.6z m124.416 0c-14.336 0-25.6 11.264-25.6 25.6s11.264 25.6 25.6 25.6 25.6-11.264 25.6-25.6-11.264-25.6-25.6-25.6z m55.808-305.152H46.592c-19.968 0-35.84-18.432-35.84-40.96s16.384-40.96 35.84-40.96h359.424c19.968 0 35.84 18.432 35.84 40.96 0.512 22.528-15.872 40.96-35.328 40.96z m-304.128-66.56c-14.336 0-25.6 11.264-25.6 25.6s11.264 25.6 25.6 25.6 25.6-11.264 25.6-25.6-11.776-25.6-25.6-25.6z m123.904 0c-14.336 0-25.6 11.264-25.6 25.6s11.264 25.6 25.6 25.6 25.6-11.264 25.6-25.6-11.264-25.6-25.6-25.6z m360.448-219.648H425.984v53.76c0 23.04-18.944 41.984-41.984 41.984H53.248c-23.04 0-41.984-18.944-41.984-41.984v-172.032c0-23.04 18.944-41.984 41.984-41.984H384c23.04 0 41.984 18.944 41.984 41.984v53.76h161.28v-53.76c0-23.04 18.944-41.984 41.984-41.984h330.752c23.04 0 41.984 18.944 41.984 41.984v172.032c0 23.04-18.944 41.984-41.984 41.984h-330.752c-23.04 0-41.984-18.944-41.984-41.984v-53.76h-0.512z m-217.088-105.472h-302.08v145.92h302.08v-145.92z m273.408 145.408h302.08v-145.92h-302.08v145.92z m352.256 428.544c-0.512 1.536-1.536 3.072-2.56 3.584l-33.28 19.456 1.024 7.168c0.512 4.096 1.024 8.192 1.024 11.264 0 4.096 0 7.68-1.024 11.776l-1.024 7.168 33.792 19.456c1.536 1.024 2.048 2.048 2.56 3.584 0.512 1.536 0 3.072-0.512 4.608l-24.064 41.984c-1.536 2.56-5.12 4.096-8.192 2.048l-33.28-19.456-5.632 4.608c-6.144 5.12-12.8 8.704-19.968 11.264l-6.656 2.56v38.912c0 3.072-2.56 6.144-6.144 6.144h-48.128c-3.072 0-5.632-2.56-5.632-5.632v-38.912l-6.656-2.56c-7.168-3.072-13.824-7.168-19.968-11.776l-5.632-4.608-33.792 19.456c-2.56 1.536-6.656 0.512-8.192-2.048l-11.264-20.48h6.656c17.92 0 31.744-14.336 31.744-32.256v-33.792c3.072-1.536 5.632-3.072 8.704-4.608V645.12c0 37.888 30.72 69.12 68.096 69.12s68.096-30.72 68.608-69.12c0-20.992-9.728-40.96-25.6-53.76l1.536-3.072c4.608-7.68 5.12-15.872 3.072-24.576v-1.024c3.072 1.536 6.144 4.096 9.216 6.144l5.632 4.608 33.792-19.456c1.024-0.512 1.536-1.024 3.072-1.024 2.048 0 4.096 1.024 5.12 3.072l24.064 41.984c0 2.56 0 3.584-0.512 5.632zM544.256 534.016l34.816-20.48c-1.024-5.12-1.024-11.264-1.024-16.896 0-5.632 0.512-11.264 1.024-16.896l-34.816-20.48c-10.24-5.632-13.824-18.944-7.68-29.696l31.232-54.272c5.632-10.24 18.944-13.824 29.184-8.192l34.816 20.48c8.704-6.656 18.432-12.288 28.672-16.896v-40.96c0-11.776 9.728-21.504 21.504-21.504h61.952c11.776 0 21.504 9.728 21.504 21.504v40.96c10.24 4.608 19.968 10.24 28.672 16.896l34.816-20.48c10.24-5.632 23.04-2.048 29.184 8.192l31.232 54.272c5.632 10.24 2.048 23.552-8.192 29.184l-33.28 18.944-2.048 1.536c1.024 5.12 1.024 11.264 1.024 16.896s-0.512 11.264-1.024 16.896l34.816 20.48c10.24 5.632 13.824 18.944 7.68 29.696l-6.656 11.264-24.576 42.496c-5.632 10.24-18.944 13.824-29.184 8.192l-30.72-17.92-4.608-2.56c-8.704 6.656-17.92 12.288-28.672 16.896v40.96c0 11.776-9.728 21.504-21.504 21.504h-61.44c-11.776 0-21.504-9.728-21.504-21.504v-40.96c-10.24-4.608-19.968-10.24-28.16-16.896l-34.816 20.48c-10.24 5.632-23.04 2.048-29.184-8.192l-30.72-54.272c-6.144-9.728-2.56-22.528 7.68-28.672z m167.936 52.736h4.096c31.232-1.536 58.368-18.944 72.704-45.056 7.68-13.312 11.776-28.16 11.776-44.032 0-49.664-39.936-90.112-89.088-90.112-49.152 0-89.088 39.936-89.088 90.112 0.512 49.152 40.448 89.088 89.6 89.088z"  horiz-adv-x="1024" />

    
    <glyph glyph-name="-shenfenguanli" unicode="&#58977;" d="M458.752-8.192c-148.992 6.656-212.992 2.56-361.984 2.048-29.696 0-36.864 7.68-36.864 35.328 1.024 233.472 1.024 381.952 0 614.912 0 30.72 9.728 41.984 41.472 40.96 74.24-2.56 148.992-4.608 223.232-2.56 190.976 5.632 381.952-1.024 572.928 2.56 30.72 0.512 42.496-8.704 41.984-40.448-1.536-92.16-0.512-99.328-0.512-191.488 0-18.432 2.048-33.792 26.624-34.304 26.112-0.512 29.184 15.36 29.184 35.328 0 153.6-0.512 222.72 0.512 376.32 0 28.16-10.752 37.376-38.912 36.864-81.92-1.024-718.848 0-899.584-0.512C5.12 866.816 5.12 866.816 5.12 816.64v-790.016c0-81.408 0-80.896 83.968-80.896h368.64c17.408 0 32.768 2.56 32.768 24.576-0.512 20.992-15.872 20.48-31.744 21.504zM102.4 813.056c265.216-1.024 530.432-1.024 795.648 0 30.208 0 42.496-8.192 42.496-39.936 0-31.232-11.264-39.936-41.984-39.936-132.608 1.536-265.216 0.512-397.824 0.512-132.608 0-265.216 0.512-397.824-0.512-30.208-0.512-43.008 7.168-42.496 39.424 0 31.232 10.752 40.448 41.984 40.448z m897.024-785.408c-7.68 11.264-7.168 27.648-1.024 38.912 30.208 55.296 16.384 72.192 16.896 129.536 0 46.592-33.792 80.896-80.384 92.16-34.304 8.704-68.608 16.896-103.424 20.992-27.136 3.072-43.008 15.872-40.96 46.592 2.048 31.232 0.512 62.976 0.512 94.208 0 14.848-1.536 29.184-13.312 40.448-18.944 18.432-37.888 37.376-68.096 28.16-34.304-10.752-57.856-38.4-57.856-71.168-1.024-62.464 0-124.928 0-194.048-14.336 12.288-20.992 19.968-29.696 25.088-28.16 16.384-55.296 11.264-79.872-6.656-20.992-15.36-29.184-36.864-16.384-59.392 37.888-67.584 58.368-101.888 114.176-159.232 13.312-13.824 18.432-28.16-7.68-33.28-19.968-3.584-26.112-16.384-26.624-33.28-0.512-33.792-0.512-25.088 0-58.368 0-21.504 11.264-33.792 33.792-33.792h350.208c13.824 0 28.672 4.096 27.136 19.456-6.144 51.712 17.408 64.512-17.408 113.664z m-66.56-78.336c-40.96 0.512-82.432 0-123.392 0-39.936 0-79.872 0.512-120.32 0-19.968-0.512-29.184-35.84-29.696-15.36 0 20.48 6.656 30.72 29.184 30.72 81.408-0.512 162.304-0.512 243.712 0 20.992 0 28.16-9.728 28.16-28.672 0-19.456-6.656 12.8-27.648 13.312z m9.728 126.976c-8.704-15.36 5.12-39.424-11.264-50.688-19.456-12.8-44.544-5.12-67.072-5.632-39.936-1.024-80.384 0.512-120.32-0.512-22.528-0.512-38.4 4.096-37.376 30.72 0.512 16.384-10.752 26.112-22.016 36.352-51.712 46.592-66.048 72.192-99.84 128.512-2.56 4.608-3.584 11.264 2.56 14.848 5.632 3.072 11.264 0 15.872-3.584 10.752-9.728 20.992-20.48 32.256-30.208 17.408-15.36 38.912-13.824 58.368-8.192 17.92 5.632 12.8 24.064 13.312 38.4 0.512 33.792 0 67.072 0 100.864 0 35.84-0.512 71.68 0 107.52 0 11.776-2.56 29.184 15.36 28.672 15.36-0.512 11.776-16.896 11.776-27.136 0.512-39.424 1.024-78.336 0-117.76-1.024-31.744 14.848-45.056 45.568-51.712 48.64-10.752 98.816-15.36 146.432-31.744 23.04-8.192 33.792-23.552 33.28-45.568-1.536-52.736 12.288-63.488-16.896-113.152zM382.976 162.816c-0.512 11.776-0.512-10.24 0 0z m-189.952 1.536c0-6.144 0 6.656 0 0z m208.384-95.232c25.088-0.512 38.4 8.704 37.888 35.328-1.024 68.608-1.024 52.224 0 120.832 0.512 26.624-12.8 35.328-37.888 35.328-75.776-0.512-151.04-0.512-226.816 0-28.16 0.512-38.912-11.264-38.4-38.4 1.024-66.048 1.024-47.616 0-114.176-0.512-27.136 11.264-39.424 38.912-38.912 38.912 0.512 77.824 0 116.736 0 36.352 0 73.216 0.512 109.568 0z m-179.712 54.784c-19.968 0-29.696 6.656-29.184 27.136 0 7.168 0 10.752 0.512 12.8 0 2.048 0 6.144-0.512 13.312-0.512 19.968 8.192 28.672 28.672 27.648 23.04-1.024 45.568 0 68.608 0 19.456 0 38.912-1.024 58.368 0.512 24.064 1.536 36.352-6.656 35.328-32.256 0-5.12-0.512-8.192-0.512-10.24 0-2.048 0-5.12 0.512-9.728 0.512-21.504-9.216-30.208-30.72-29.696-44.032 1.024-87.552 1.024-131.072 0.512z m1.536 426.496c31.744-0.512 64 0 96.256 0.512 18.944 0 30.208 7.68 30.208 28.16 0 21.504-12.8 26.112-31.232 26.112-49.152 0-98.304-0.512-147.456 0-25.088 0.512-34.816-9.728-34.816-34.304 0.512-67.072 0.512-134.144 0-201.728 0-26.112 12.288-35.84 37.888-35.328 37.888 0.512 75.264 0 113.152 0h72.192c88.064 1.024 79.872-11.776 79.872 83.456 0 18.432-2.56 33.28-27.136 33.28-24.064 0.512-29.696-12.8-28.672-32.256 1.024-21.504-9.216-30.208-30.72-29.696-43.52 1.024-87.04 1.024-130.56 0-22.528-0.512-30.208 9.728-29.696 30.72 1.024 33.792 1.024 67.072 0 100.864-0.512 22.016 9.216 30.72 30.72 30.208z m661.504 8.192c0 24.064-16.384 26.112-34.816 26.112h-297.984c-19.456 0-33.28-4.096-32.768-27.648 0.512-21.504 12.8-26.624 30.72-26.624h301.568c19.968-0.512 33.28 5.632 33.28 28.16z m-447.488 23.552c-17.92 14.848-30.208 7.68-43.52-6.656-25.6-29.696-52.224-58.368-77.824-88.576-13.824-15.872-25.6-14.848-39.424-0.512-8.192 8.704-15.36 19.968-30.208 20.992-10.752-2.56-16.384-11.776-22.528-18.944-7.168-8.704-3.072-16.384 4.096-23.552 19.968-19.456 40.448-39.424 60.416-59.392 13.824-13.824 24.064-6.656 33.792 4.608 37.888 43.008 75.776 86.016 113.152 129.536 11.776 13.312 21.504 26.624 2.048 42.496z m114.688-227.328c14.848 0.512 29.696 0 44.544 1.024 11.264 1.024 18.944 8.192 19.968 19.456 1.536 11.264 2.56 23.552-8.704 30.208-11.264 6.656-24.576 3.584-34.816 4.096h-18.944c-18.944 0.512-33.792-2.048-34.304-26.624-0.512-22.528 12.288-28.672 32.256-28.16z m13.824 92.672h16.384c18.432-0.512 34.816 1.536 34.816 25.6 0 24.576-15.872 29.696-36.352 29.184-12.288 0-25.088 0-37.376-0.512-16.896-1.024-23.552-10.752-24.064-26.624-0.512-38.4 29.696-24.576 46.592-27.648z"  horiz-adv-x="1024" />

    
    <glyph glyph-name="-xiangmushenbaoguanli" unicode="&#58980;" d="M785.92 735.232H106.496c-54.784 0-99.328-44.544-99.328-99.328v-595.968c0-54.784 44.544-99.328 99.328-99.328h679.424c54.784 0 99.328 44.544 99.328 99.328V635.904c0 54.784-44.544 99.328-99.328 99.328z m33.28-695.296c0-18.432-14.848-33.28-33.28-33.28H106.496c-18.432 0-33.28 14.848-33.28 33.28V403.968H819.2v-364.032z m0 430.592H73.216V635.904c0 18.432 14.848 33.28 33.28 33.28h679.424c18.432 0 33.28-14.848 33.28-33.28v-165.376z m-132.096 66.048h66.048V602.624h-66.048v-66.048z m-132.608 66.048H172.544c-18.432 0-33.28-14.848-33.28-33.28s14.848-33.28 33.28-33.28h381.952c18.432 0 33.28 14.848 33.28 33.28s-14.848 33.28-33.28 33.28z m364.032 264.704H238.592C184.32 867.328 139.776 822.784 139.776 768h66.048c0 18.432 14.848 33.28 33.28 33.28h679.424c18.432 0 33.28-14.848 33.28-33.28v-595.968c0-18.432-14.848-33.28-33.28-33.28v-66.048c54.784 0 99.328 44.544 99.328 99.328V768c-0.512 54.784-45.056 99.328-99.328 99.328z"  horiz-adv-x="1024" />

    
    <glyph glyph-name="-jiangxuejinguanli1" unicode="&#58889;" d="M786.432 578.048c-51.2 74.24-122.88 120.832-212.48 137.728-20.48 4.096-41.472 5.632-61.952 5.632-29.696 0-59.392-4.096-89.088-11.776-37.888-10.24-73.216-27.136-105.472-50.688-42.496-30.72-75.264-69.12-98.304-115.2-17.92-35.84-28.672-74.752-31.232-115.712-2.56-43.008 3.072-84.992 17.408-124.416 9.216-25.6 22.528-50.176 41.984-78.848 31.232-45.056 53.76-59.392 69.632-96.768 9.728-22.528 17.408-21.504 23.552-44.544 6.144-25.088 23.552-38.912 48.64-38.912h249.856c23.04 0 40.448 12.8 46.592 34.816l1.024 4.608c5.632 19.456 18.944 46.592 30.72 63.488 27.648 38.4 29.696 29.184 55.808 69.632 2.56 4.096 5.12 7.68 7.68 11.776 10.752 16.384 22.016 33.792 30.72 52.224 26.112 55.808 33.792 116.224 23.04 179.2-8.192 43.008-24.064 82.432-48.128 117.76z m-15.36-205.312c-5.632-38.4-21.504-75.776-50.688-116.736-36.864-52.736-103.424-150.528-103.424-150.528H408.064c-1.024 2.56-15.872 20.992-25.088 40.448-19.456 43.52-44.544 60.416-79.36 111.616-12.8 18.944-26.112 38.912-34.304 60.416-17.408 44.032-21.504 87.552-13.312 133.632 4.608 24.576 11.776 47.104 22.528 68.096 11.264 20.992 25.6 41.472 44.032 59.904 32.768 33.28 72.192 56.832 116.736 69.632 24.064 6.656 48.128 10.24 72.192 10.24 14.336 0 29.696-1.024 44.544-4.096 76.8-13.312 136.704-52.224 178.176-116.224 33.28-49.152 45.568-105.472 36.864-166.4z m-141.824-408.064H396.288c-8.192 0-14.848-1.536-20.48-4.096-20.992-9.728-30.72-31.232-25.088-55.808 4.608-19.968 22.528-32.768 45.568-32.768h233.984c14.336 0 25.6 4.096 33.792 11.776 8.704 8.704 13.312 20.992 12.8 36.352-1.024 26.624-19.968 44.544-47.616 44.544z m-376.832 732.16c7.68-10.24 19.968-16.384 33.28-16.384 4.608 0 9.216 0.512 13.824 2.048 15.36 5.12 25.6 18.944 27.136 35.328l0.512 4.096-1.536 3.584c-0.512 1.024-0.512 2.048-1.024 3.072-1.024 3.584-2.048 8.704-5.632 13.312-13.312 18.432-26.624 37.376-39.936 55.296l-1.024 1.536c-7.68 10.752-20.992 17.408-33.792 17.408-3.584 0-7.168-0.512-10.752-1.536-13.312-4.096-23.552-13.312-27.648-25.088-4.096-11.776-2.048-24.576 6.144-35.84 13.312-19.968 28.16-39.936 40.448-56.832z m630.784-201.216c6.144 0 12.288 1.024 18.944 3.584 18.944 6.656 38.912 13.824 60.928 21.504 19.456 6.656 31.744 25.088 28.672 43.52-3.072 18.944-20.48 32.768-41.472 33.28h-2.048l-2.048-0.512c-1.536-0.512-4.608-0.512-7.68-2.048l-17.408-6.144c-17.408-5.632-34.816-11.776-52.224-18.432-19.456-7.168-29.696-25.088-25.088-44.544 4.096-17.92 19.456-30.208 39.424-30.208z m-144.384 182.784h3.072c12.288 0 23.04 5.632 31.744 17.408 4.096 5.12 7.68 10.24 11.264 15.36 2.048 2.56 3.584 5.12 5.632 7.68l8.192 11.264 15.36 21.504c6.656 9.728 9.216 20.48 7.168 31.232-2.048 10.24-8.192 18.944-17.408 25.088-6.656 4.096-13.824 6.144-21.504 6.144-13.824 0-26.624-6.656-34.816-18.432-4.096-5.12-7.68-10.752-11.776-15.872l-9.216-12.8c-6.144-8.704-12.8-16.896-18.944-25.6-10.24-14.336-10.752-30.208-2.048-44.032 7.168-12.8 18.944-18.944 33.28-18.944z m-586.752-102.4c-20.992 7.68-42.496 14.848-63.488 22.528-5.632 2.048-10.752 3.072-16.384 3.072-17.408 0-32.256-9.728-37.888-24.576-8.192-21.504 2.56-43.52 24.576-51.2l17.92-6.144c10.24-3.584 20.992-7.68 31.744-11.264 6.144-2.048 12.288-4.096 17.408-5.632l8.192-2.56h3.072c22.528 0 39.424 13.312 43.008 32.768 3.584 17.408-8.704 36.352-28.16 43.008zM972.8 325.632l-23.04 6.144c-8.704 2.048-17.408 4.608-26.112 6.656-6.144 1.536-12.8 3.072-17.92 4.096l-7.68 1.536h-2.048c-23.04 0-38.912-12.8-42.496-32.768-3.072-18.944 9.216-37.888 27.136-43.008 19.968-5.12 46.592-12.288 73.728-18.944 3.072-1.024 6.656-1.024 9.728-1.024 18.432 0 34.304 12.288 38.4 30.72 4.608 20.48-8.192 40.96-29.696 46.592z m-843.264 23.552h-2.56l-5.632-1.024c-3.072-0.512-6.144-1.024-8.704-2.048-7.68-2.048-15.872-4.096-23.552-6.144-13.312-3.584-26.112-6.656-39.424-10.24-22.016-5.12-35.328-25.6-30.72-46.592 4.096-17.92 19.968-30.72 38.912-30.72 3.584 0 7.168 0.512 10.24 1.024 16.896 4.096 33.28 8.192 49.664 12.8 7.168 2.048 13.824 3.584 20.992 5.632 20.48 5.12 32.256 22.528 29.696 42.496-2.56 19.968-18.432 33.792-38.912 34.816zM512.512 747.52c11.264 0 22.016 4.608 29.696 12.288 7.168 7.168 10.752 16.384 10.752 25.6v35.328 11.264 26.624c-0.512 20.48-17.408 36.352-38.4 36.864h-1.024c-22.016 0-39.936-16.384-39.936-36.352-0.512-24.576-0.512-50.176 0-75.776-0.512-19.456 17.408-35.84 38.912-35.84z m139.264-223.232h-53.248c-9.216 0-17.92-4.608-22.528-12.8l-40.96-69.12c-10.24-16.896-35.328-16.896-45.568 0l-40.96 69.12c-4.608 7.68-13.312 12.8-22.528 12.8H370.176c-20.992 0-33.28-22.528-22.016-38.912l59.392-87.04c11.264-16.896-1.024-38.912-22.016-38.912-14.336 0-26.112-11.264-26.112-25.088v-12.288c0-13.824 11.776-25.088 26.112-25.088h47.104c14.336 0 26.112-11.264 26.112-25.088v-42.496c0-13.824 11.776-25.088 26.112-25.088h51.712c14.336 0 26.112 11.264 26.112 25.088V271.36c0 13.824 11.776 25.088 26.112 25.088h47.104c14.336 0 26.112 11.264 26.112 25.088v12.288c0 13.824-11.776 25.088-26.112 25.088h-0.512c-20.992 0-33.28 22.528-22.016 38.912l59.392 87.04c12.288 16.896-0.512 39.424-20.992 39.424z"  horiz-adv-x="1024" />

    
    <glyph glyph-name="zhankai" unicode="&#58967;" d="M566.784 876.032c-22.528 0-40.96-18.432-40.96-40.96v-901.12c0-22.528 18.432-40.96 40.96-40.96s40.96 18.432 40.96 40.96v901.12c0 22.528-18.432 40.96-40.96 40.96z m409.6 0c-22.528 0-40.96-18.432-40.96-40.96v-901.12c0-22.528 18.432-40.96 40.96-40.96s40.96 18.432 40.96 40.96v901.12c0 22.528-18.432 40.96-40.96 40.96z m-737.28-723.456V615.936L7.168 384l231.936-231.424z"  horiz-adv-x="1024" />

    
    <glyph glyph-name="-xueshengxitongguanli" unicode="&#58891;" d="M849.92-79.36c-25.6 0-40.96 21.504-51.712 40.448-16.384 29.184-28.16 51.712-37.376 71.68-2.048 5.12-4.608 9.216-7.168 11.776-1.536 1.536-3.072 2.048-5.12 2.048h-1.024c-2.048-0.512-4.096-1.536-5.12-3.072l-1.024-1.024-4.608-4.608c-11.264-13.824-25.6-26.624-37.376-36.864-9.216-8.704-17.92-15.872-29.184-15.872-3.584 0-7.168 1.024-10.752 2.56-18.432 8.192-29.184 23.04-31.232 41.472-0.512 6.144-0.512 13.312-0.512 19.968v66.048 90.624 181.76c0 1.536 0 2.56-0.512 4.096v3.072 0.512c-1.024 13.312-0.512 26.624 12.8 33.28 3.072 1.536 6.144 2.048 9.216 2.048 7.68 0 13.312-5.12 18.944-10.24l1.536-1.536c1.536-1.536 4.096-4.096 6.144-5.12l120.832-90.624c15.36-11.776 31.232-23.04 46.592-34.816 35.328-26.112 71.68-53.76 108.032-79.872 22.528-16.384 29.696-37.376 22.528-63.488-6.656-21.504-23.04-32.256-49.152-32.256h-22.016c-2.56 0-5.12-1.536-6.144-3.584-1.536-2.048-1.536-5.12 0-7.168l4.096-7.168c8.704-16.896 18.432-34.816 28.16-52.736 24.064-44.032 13.312-75.776-36.864-105.984-16.384-10.24-30.208-15.36-41.984-15.36z m13.824 42.496c1.536-0.512 2.56-0.512 4.096-0.512 6.144 0 12.8 4.096 18.944 8.192l0.512 0.512c10.24 7.168 4.096 19.968-1.024 31.232-3.584 7.168-7.168 13.824-10.752 20.48-3.584 6.656-7.168 13.824-10.752 20.48-14.336 27.136-31.232 59.392-49.152 88.576-2.048 4.096-5.12 13.824 1.536 25.088 4.608 7.168 12.288 10.752 29.696 12.8 5.12 0.512 10.24 0.512 15.872 0.512 2.56 0 11.776-0.512 19.968-0.512 7.68-0.512 14.848-0.512 16.896-0.512 3.072 0 6.144 2.048 7.168 5.12 1.024 3.072 0 6.144-2.56 8.192-6.656 4.608-68.608 48.64-69.12 49.152-13.824 10.24-27.648 20.992-41.984 31.232-33.28 25.088-68.096 50.688-101.888 75.264-0.512 0-0.512 0.512-1.024 0.512l-2.048 1.024c-1.024 0.512-2.048 0.512-3.072 0.512-1.536 0-2.56-0.512-3.584-1.024-2.048-1.536-3.584-3.584-3.584-6.144-0.512-65.024-0.512-130.048-0.512-199.168v-63.488c0-3.072 1.536-5.632 4.608-6.656 1.024-0.512 2.048-0.512 2.56-0.512 2.048 0 3.584 0.512 5.12 2.048 8.704 8.704 16.384 18.944 24.064 29.184 5.12 6.656 9.728 12.8 14.336 17.92 1.024 1.024 2.048 2.56 3.072 3.584 6.656 8.192 11.776 13.312 20.48 13.312 17.92 0 27.136-15.36 29.184-19.968 19.456-36.864 41.472-76.8 68.608-125.952l1.024-2.048c4.608-11.776 8.192-17.408 13.312-18.432z m-352.256 258.048c-61.952 0-138.24 12.8-203.776 34.304-43.008 18.944-69.12 59.904-66.048 101.888 2.048 29.696 1.536 59.904 1.024 88.576-0.512 10.24-0.512 20.992-0.512 31.232 0 17.408-31.744 48.64-54.784 48.64h-1.024c-5.12-0.512-7.168-1.536-7.68-1.536-1.024-0.512-2.048-1.536-2.56-2.56-2.048-3.072-2.048-6.656-1.536-12.8v-234.496c0.512-11.776-2.56-31.232-12.8-35.328-5.632-2.56-11.264-3.072-14.848-3.072-18.432 0-31.232 13.312-31.744 33.28l-0.512 32.256v22.528c-0.512 61.952-1.024 125.952 1.536 188.928 0.512 13.824 2.56 26.112 8.704 36.352 1.024 2.048 1.536 6.144-1.024 8.192-1.024 1.024-2.56 1.024-4.096 1.024-2.048 0-4.096-0.512-6.144-1.536-1.536-1.024-4.608-2.048-7.68-2.56-4.096-1.024-8.192-1.536-12.288-1.536-39.424 0-80.896 39.936-80.896 77.824 0 58.368 2.56 61.952 56.32 79.872l54.784 17.92c80.384 26.624 163.328 53.76 243.2 84.48l16.384 6.144c40.96 15.872 83.456 32.256 127.488 32.256 19.968 0 37.888-3.072 56.32-9.216l114.688-38.912c32.768-11.264 66.048-22.016 98.816-33.28s65.536-22.016 98.304-33.28c26.624-9.216 56.32-18.432 93.696-29.184 23.04-7.168 45.056-17.92 44.032-59.392 0-6.144-1.024-29.184-1.024-29.696-1.536-26.112-18.944-44.544-37.888-50.688-24.576-7.68-143.872-48.64-159.232-53.248-19.456-5.632-23.04-17.92-22.528-34.304 0.512-9.216 0-17.92 0-27.136V420.864c0-29.184-17.408-35.328-31.744-35.328-27.136 0-31.232 18.432-32.256 34.304-2.56 44.032-3.072 56.832-16.896 56.832-8.704 0-22.528-3.584-47.616-11.776 0 0-38.912-11.776-43.008-12.8-26.624-8.192-53.76-16.384-78.848-28.672-12.8-6.656-25.6-9.728-39.936-9.728-21.504 0-40.448 7.168-61.952 15.872-7.68 3.072-15.872 6.144-23.552 8.704-31.232 10.752-62.976 23.04-93.696 35.328l-4.096 3.072-5.12 2.048c-1.536 0.512-3.584 1.536-6.144 1.536s-5.12-1.536-6.656-4.096c-1.024-2.56-1.024-5.12-1.024-7.68v-41.472c0-26.624 0-54.784 0.512-81.92 0.512-24.064 16.896-31.232 41.984-39.424l4.096-1.536c48.64-15.872 99.328-24.064 151.552-24.064 13.312 0 26.624 0.512 39.424 1.536 11.776 1.024 23.04 1.536 34.816 1.536h6.656c21.504-0.512 25.6-17.408 27.648-34.816-0.512-8.192-4.096-13.824-6.144-16.384-4.096-5.632-11.776-8.704-21.504-9.216-21.504-1.536-36.352-1.536-49.152-1.536h-22.016z m-41.472 473.088c12.288-0.512 26.624-0.512 29.696-27.136 2.56-20.992-12.8-28.672-29.696-34.304-29.696-9.728-59.904-19.456-90.112-29.184-22.016-7.168-43.52-14.336-65.536-20.992-13.824-4.608-27.648-8.704-40.96-13.312-3.072-1.024-5.12-3.584-5.12-6.656 0-3.072 2.048-5.632 4.608-7.168 9.728-3.584 24.576-9.728 37.376-14.848 5.12-2.048 10.24-4.096 14.336-5.632 11.776-4.608 23.04-8.704 34.816-13.312 44.544-16.896 87.04-33.28 131.072-48.128 5.12-1.536 10.752-3.072 17.408-3.072 16.896 0 32.768 6.656 50.176 13.824l1.024 0.512c3.072 1.024 6.144 2.56 9.216 3.584 6.144 2.56 11.776 5.12 17.408 6.656 76.288 24.576 160.768 48.64 264.704 84.48l99.84 31.232c16.896 4.608 21.504 11.776 22.528 24.064 1.024 11.264-3.072 15.872-20.48 22.528-0.512 0-118.784 38.4-172.032 55.296l-10.752 3.584c-77.824 25.088-158.208 51.2-236.032 78.848-8.192 3.072-16.896 4.608-25.6 4.608-17.408 0-32.256-5.632-50.176-12.8h-0.512c-6.144-3.072-12.8-5.632-20.48-7.68-61.44-19.968-123.904-41.984-184.32-62.976l-25.088-8.704-71.168-25.6c-29.184-10.24-58.368-20.992-87.04-31.744h-0.512c-7.168-3.072-13.312-6.144-13.312-12.8 0-1.024 0-1.536 0.512-2.048 1.536-4.608 6.144-6.144 9.728-7.168 0.512 0 1.024-0.512 1.536-0.512l2.56-1.024c15.36-5.12 31.744-11.264 35.84-26.112 4.608-15.872 0.512-17.92 3.584-18.432 2.56-0.512-5.12 1.024 76.288 25.088 55.808 16.384 112.64 35.84 167.424 53.76 49.664 16.384 107.52 33.792 114.688 34.304 0.512-1.024 1.536-1.024 2.56-1.024z"  horiz-adv-x="1024" />

    
    <glyph glyph-name="-yanjiushengxitongguanli" unicode="&#58892;" d="M837.12-115.712c-20.992 0-36.352 18.432-45.568 34.304l-11.776 19.968c-10.24 16.896-20.48 34.816-29.696 51.712-4.608 8.704-7.68 11.776-9.216 12.8-1.536 1.536-3.072 2.048-5.12 2.048-1.024 0-2.048 0-2.56-0.512-1.536-0.512-2.56-1.536-3.584-3.072l-0.512-0.512c-1.024-1.024-3.072-3.072-5.12-6.144-3.072-3.584-7.168-8.192-11.776-12.288-1.024-1.024-2.048-2.048-3.072-2.56-1.024-1.024-2.048-2.048-3.584-3.072-13.824-13.824-27.136-27.136-45.568-27.136-5.632 0-10.752 1.024-15.872 3.072-27.648 10.752-27.648 35.328-27.648 56.832v219.648c0 38.912 0 78.848 0.512 118.272 0 31.744 12.8 31.744 16.896 31.744 6.144 0 13.312-3.072 24.064-10.752 25.088-17.92 50.176-35.84 74.752-53.76 41.984-30.208 84.992-60.928 127.488-91.648l85.504-61.952c19.456-13.824 26.112-34.304 18.944-57.344-7.168-20.48-23.04-32.256-45.056-33.792-4.096-0.512-8.192-1.024-12.288-1.024-5.632-0.512-10.752-1.024-14.336-1.536-2.048-0.512-4.096-1.536-5.12-3.584s-1.024-4.608 0-6.656c2.56-5.632 7.68-14.848 12.8-23.552l2.048-3.584c3.584-7.168 8.192-14.848 13.312-23.04 14.336-22.016 26.112-43.52 10.752-68.096-19.456-29.184-49.152-48.64-83.968-54.784h-5.632z m-98.816 196.608c14.336 0 23.552-4.096 37.376-29.184 11.264-19.968 24.064-40.448 36.864-59.904 10.752-16.384 22.016-33.792 31.232-50.688 0.512-0.512 0.512-1.024 1.024-1.536 0 0 0.512-1.024 1.024-1.536 2.048-3.072 5.632-9.216 12.288-9.216 3.072 0 18.432 7.168 22.528 16.384 2.048 5.12 1.536 10.24-2.56 14.848-16.896 27.136-32.768 54.784-47.616 80.896-5.12 9.216-10.24 17.92-15.36 27.136l-9.216 15.872c-10.24 17.408-12.8 23.04-7.168 32.768 4.096 7.168 15.36 10.752 33.28 10.752 5.12 0 11.264-0.512 17.92-1.024l29.696-2.048h0.512c3.072 0 6.144 2.048 6.656 5.12 1.024 3.072 0 6.656-3.072 8.192l-44.544 28.672-36.352 27.136c-39.936 29.696-81.408 60.416-122.88 90.624-1.024 1.024-2.56 1.536-4.096 1.536-1.024 0-2.048-0.512-3.072-1.024-2.56-1.024-4.096-3.584-4.096-6.656v-243.712c0-3.072 2.048-6.144 5.12-7.168 0.512 0 1.536-0.512 2.048-0.512 2.56 0 4.608 1.024 6.144 3.072 6.144 9.216 12.288 18.432 19.968 26.112 20.48 21.504 25.088 25.088 36.352 25.088zM357.376 107.52c-16.896 0-26.112 13.312-34.816 25.088l-2.048 3.072c-2.048 3.072-4.608 6.656-7.168 9.216l-3.584 4.096c-13.312 14.336-22.528 24.576-37.888 24.576-5.632 0-11.776-1.536-18.944-4.608-4.608-2.048-9.216-3.072-13.824-3.072-15.872 0-28.672 12.8-33.792 33.792 0 0.512 0 1.024-0.512 2.048-0.512 3.072-1.024 6.656-0.512 10.24 21.504 84.992-31.232 114.688-96.768 142.336-13.824 5.632-26.112 11.776-37.376 18.944C20.48 403.456 10.752 446.464 10.752 476.672v16.384c0 15.872 0 29.696 2.56 44.032C22.528 603.136 55.808 641.024 81.92 653.312L508.928 865.792C527.872 875.52 547.84 880.64 567.296 880.64c15.872 0 33.792-9.216 51.2-17.92 2.56-1.536 5.12-2.56 7.68-4.096 22.016-11.264 45.056-20.48 67.072-29.696 20.992-8.704 43.008-17.92 64.512-28.672 24.576-12.288 48.64-24.064 73.216-36.352 39.936-19.968 80.896-40.448 121.344-60.416 26.112-12.8 36.352-25.088 40.448-48.64 2.56-14.848 1.024-37.888-22.528-62.976-7.68-8.192-8.192-18.432-8.192-28.672 0-16.384-0.512-43.008-0.512-43.52-0.512-32.768-17.92-32.768-24.064-32.768-15.36 0-26.112 7.168-30.208 21.504l-1.024 6.656v0.512l-2.048 7.68c0 3.584-1.536 8.192-2.56 12.288-0.512 2.56-1.536 6.144-1.536 7.168 0 2.56-1.024 4.608-3.072 6.144-1.024 1.024-2.56 1.536-4.096 1.536-1.024 0-1.536 0-2.56-0.512-3.584-1.536-7.168-3.584-10.752-5.632-1.024-0.512-2.048-1.536-3.072-2.048-13.312-6.656-27.136-13.312-40.96-19.968-20.48-9.728-41.984-19.968-62.976-30.72l-63.488-31.744c-32.256-15.872-64.512-31.744-96.768-48.128-32.256-15.872-64-31.744-96.256-47.616-11.264-5.632-22.528-8.704-33.792-8.704-11.776 0-23.552 2.56-35.84 8.704-35.328 16.896-62.464 28.672-88.576 39.424-17.408 7.168-33.28 14.336-50.688 22.528-12.288 5.632-25.088 11.264-38.4 17.92-18.944 8.704-39.936 18.432-63.488 29.184-3.072 2.048-7.168 3.072-10.752 4.608l-4.608 1.536c-1.024 0.512-1.536 0.512-2.56 0.512s-2.56-0.512-3.584-1.024c-2.048-1.024-3.072-3.072-3.584-5.12-3.072-22.016-15.36-35.328-33.28-35.328-9.728 0-16.896 3.072-22.016 8.704-5.632 6.656-8.704 18.944-8.192 31.232 0 3.584 0.512 6.144 0.512 8.704 0.512 3.072 0.512 5.632 1.024 10.24 3.584 24.576 12.288 44.544 20.48 47.104 0.512 0 1.536 0.512 2.048 1.024 5.12 3.584 10.24 4.608 16.896 4.608h11.776c16.896 0 31.744-8.192 46.08-16.896 5.632-3.584 11.776-7.168 17.408-9.728 44.032-20.48 76.8-34.304 108.032-47.616 36.352-15.36 70.656-30.208 120.32-53.76 7.168-3.072 13.824-4.608 19.968-4.608 7.68 0 16.384 2.56 25.6 6.656 115.2 58.368 232.448 116.224 346.112 172.544l42.496 20.992 22.528 11.264c7.68 3.584 14.848 7.168 16.384 13.824v1.024c0 7.168-5.12 10.24-14.848 14.848l-93.696 47.104c-73.728 37.888-150.528 76.8-226.816 113.664-9.216 4.608-19.968 7.168-31.744 7.168-12.8 0-25.088-3.072-36.864-9.216l-40.96-20.48c-122.368-60.416-248.32-122.88-372.736-185.856-27.136-12.8-45.056-56.832-51.2-74.752v-0.512c-9.216-37.888-5.12-75.776 10.752-98.304 3.072-4.096 8.192-8.704 14.336-11.776l36.864-18.432c12.288-6.144 24.064-11.776 36.352-17.92 13.312-6.656 28.672-13.824 30.72-14.848 1.024-0.512 2.56-1.024 4.096-1.024 1.024 0 2.048 0 2.56 0.512 2.56 1.024 4.608 3.584 4.608 6.656v2.56c2.048 25.088 7.68 48.64 30.72 48.64 8.704 0 19.968-3.584 36.352-11.776l9.216-4.608c5.632-3.072 11.776-5.632 17.408-8.704 18.432-9.216 38.912-19.968 58.88-28.672 28.672-12.288 40.96-31.744 37.376-59.392-4.096-32.768 7.168-54.784 36.352-70.144l5.632-3.072c17.408-8.704 27.648-13.824 37.376-13.824 11.776 0 23.552 5.12 38.912 16.384 5.12 3.584 20.48 11.776 26.624 15.872l3.584 2.048c5.632 3.072 11.264 4.608 15.872 4.608 12.288 0 17.408-1.536 19.968-7.168 0 0 0-0.512 0.512-0.512 9.728-15.872 7.168-32.768-7.68-41.984-11.264-7.168-19.968-14.848-27.648-20.992l-0.512-0.512c-13.824-11.776-26.624-23.04-51.712-29.696-3.584-1.024-7.68-2.048-12.288-2.048-16.384 0-30.72 8.192-44.544 16.384l-14.336 8.192c-8.704 4.096-13.312 6.656-16.896 7.68-0.512 0-1.536 0.512-2.048 0.512-1.536 0-2.56-0.512-3.584-1.024-2.048-1.024-3.072-3.072-3.584-5.12-0.512-4.608-1.024-10.24-1.024-17.92-0.512-3.072 0-6.144 0-8.704v-3.584c1.024-22.528 0.512-43.008-22.528-52.224-5.632-3.072-10.24-4.096-14.848-4.096z m-74.24 103.936c14.336 0 28.16-10.24 40.96-20.48 6.144-4.608 12.288-9.216 18.944-12.8 1.024-0.512 2.56-1.024 3.584-1.024 1.024 0 2.56 0.512 3.584 1.024 2.048 1.536 3.584 3.584 3.584 6.144v79.36c1.024 66.048 1.024 70.144-35.328 87.04-13.312 5.632-29.696 12.8-49.664 23.04-0.512 0.512-1.536 0.512-1.536 1.024-1.536 1.024-3.072 1.536-4.608 1.536-1.024 0-2.048 0-2.56-0.512-2.56-1.024-4.608-3.584-4.608-6.656v-153.088c0-2.048 1.024-4.096 2.56-5.632 1.536-1.024 3.072-1.536 4.608-1.536h1.536c5.632 1.536 12.8 2.56 18.944 2.56zM819.2 329.728c-10.24 0-18.944 5.632-25.6 17.408-4.608 7.68-5.632 15.36-3.584 22.528 2.56 8.192 9.728 15.36 20.992 20.992 24.064 11.776 42.496 21.504 61.44 31.232l16.384 8.192c18.432 9.216 37.376 18.944 67.584 34.304 6.656 3.072 12.8 5.12 19.456 5.12 9.728 0 18.432-3.584 24.576-9.728 5.12-5.632 8.192-12.8 8.192-20.48-1.024-16.896-12.8-25.088-24.064-30.72-23.04-11.264-39.424-19.456-53.76-26.624-27.136-13.312-47.616-23.552-91.648-46.08-7.168-4.096-13.824-6.144-19.968-6.144z"  horiz-adv-x="1024" />

    
    </font>
</defs>
</svg>
